<svg width="40" height="40" viewBox="0 0 40 40" fill="none" xmlns="http://www.w3.org/2000/svg">
<path d="M31.0156 6.01562C28.9563 6.01562 26.9437 6.73035 25.3491 8.02795C24.0659 9.07227 23.0942 10.4565 22.5455 12.0013C21.0626 11.1493 19.3924 10.7031 17.6562 10.7031C15.4742 10.7031 13.407 11.4026 11.6785 12.7255C10.2356 13.83 9.11591 15.332 8.46558 17.0172C8.12683 16.9232 7.77527 16.875 7.42188 16.875C5.26794 16.875 3.51562 18.6273 3.51562 20.7812C3.51562 20.9604 3.52783 21.1386 3.55225 21.3153C1.40167 22.3437 0 24.5288 0 26.9531C0 30.3995 2.80365 33.2031 6.25 33.2031C6.92719 33.2031 7.58575 33.0972 8.21594 32.8879C8.80157 34.0198 9.65454 34.9908 10.7147 35.7248C12.0233 36.6306 13.5593 37.1094 15.1562 37.1094C15.9949 37.1094 16.8115 36.9791 17.594 36.7215C18.327 38.6667 20.1974 40 22.3438 40C25.1437 40 27.4219 37.7219 27.4219 34.9219C27.4219 34.5493 27.3816 34.1815 27.3016 33.8217C28.1113 33.3932 28.6646 32.5763 28.7408 31.6312C31.4215 30.3259 33.125 27.626 33.125 24.6094C33.125 24.321 33.1091 24.0323 33.0774 23.7457C34.892 23.3185 36.5402 22.33 37.7811 20.9113C39.212 19.2752 40 17.1759 40 15C40 10.0461 35.9695 6.01562 31.0156 6.01562ZM32.0746 22.3465C32.0718 22.3468 32.0694 22.3477 32.0667 22.348C31.7209 22.3969 31.3675 22.4219 31.0156 22.4219C30.5841 22.4219 30.2344 22.7716 30.2344 23.2031C30.2344 23.6346 30.5841 23.9844 31.0156 23.9844C31.1868 23.9844 31.3583 23.9783 31.5295 23.9685C31.5512 24.1812 31.5625 24.3954 31.5625 24.6094C31.5625 27.1695 30.029 29.4443 27.6556 30.405C27.323 30.5396 27.1249 30.8835 27.1753 31.239C27.2614 31.8454 26.8387 32.4579 26.2088 32.562C25.7269 32.6416 25.4297 33.1693 25.61 33.6218C25.7755 34.0372 25.8594 34.4745 25.8594 34.9219C25.8594 36.8604 24.2822 38.4375 22.3438 38.4375C20.6366 38.4375 19.1815 37.2192 18.8837 35.5405C18.7955 35.0433 18.2416 34.7565 17.7853 34.9683C16.9586 35.3522 16.0742 35.5469 15.1562 35.5469C12.5751 35.5469 10.2933 33.9963 9.34296 31.597C9.33838 31.5854 9.33289 31.5747 9.3277 31.5637C9.32404 31.5524 9.32098 31.5411 9.31671 31.5302C9.04449 30.8182 8.90625 30.0668 8.90625 29.2969C8.90625 28.8654 8.55652 28.5156 8.125 28.5156C7.69348 28.5156 7.34375 28.8654 7.34375 29.2969C7.34375 30.0247 7.44324 30.7394 7.63916 31.4301C7.19238 31.5689 6.72791 31.6406 6.25 31.6406C3.66516 31.6406 1.5625 29.538 1.5625 26.9531C1.5625 25.1913 2.54974 23.5989 4.07776 22.8C4.23981 23.0679 4.43329 23.3173 4.65973 23.5434C4.94568 23.8293 5.46326 23.8449 5.76447 23.5434C6.06964 23.2382 6.06964 22.7435 5.76447 22.4387C5.336 22.0099 5.07812 21.3867 5.07812 20.7812C5.07812 19.4888 6.12946 18.4375 7.42188 18.4375C7.83722 18.4375 8.25012 18.5516 8.60809 18.7616C9.086 19.0414 9.6051 19.7028 10.184 19.1238C10.4892 18.819 10.4892 18.3243 10.184 18.0191C10.083 17.9181 9.97681 17.8235 9.86633 17.7347C11.0394 14.4885 14.165 12.2656 17.6562 12.2656C19.2648 12.2656 20.8054 12.7222 22.1426 13.5873C22.0691 14.053 22.0312 14.5258 22.0312 15C22.0312 15.4315 22.381 15.7812 22.8125 15.7812C23.244 15.7812 23.5938 15.4315 23.5938 15C23.5938 14.4598 23.6523 13.9224 23.7674 13.3984C24.509 10.0259 27.5571 7.57812 31.0156 7.57812C35.108 7.57812 38.4375 10.9076 38.4375 15C38.4375 18.6703 35.7022 21.8286 32.0746 22.3465V22.3465Z" fill="white"/>
<path d="M8.20312 12.4219C9.92615 12.4219 11.3281 11.0199 11.3281 9.29688C11.3281 7.57385 9.92615 6.17188 8.20312 6.17188C6.4801 6.17188 5.07812 7.57385 5.07812 9.29688C5.07812 11.0199 6.4801 12.4219 8.20312 12.4219ZM8.20312 7.73438C9.06464 7.73438 9.76562 8.43536 9.76562 9.29688C9.76562 10.1584 9.06464 10.8594 8.20312 10.8594C7.34161 10.8594 6.64062 10.1584 6.64062 9.29688C6.64062 8.43536 7.34161 7.73438 8.20312 7.73438Z" fill="white"/>
<path d="M17.5781 7.8125C19.7321 7.8125 21.4844 6.06018 21.4844 3.90625C21.4844 1.75232 19.7321 0 17.5781 0C15.4242 0 13.6719 1.75232 13.6719 3.90625C13.6719 6.06018 15.4242 7.8125 17.5781 7.8125ZM17.5781 1.5625C18.8705 1.5625 19.9219 2.61383 19.9219 3.90625C19.9219 5.19867 18.8705 6.25 17.5781 6.25C16.2857 6.25 15.2344 5.19867 15.2344 3.90625C15.2344 2.61383 16.2857 1.5625 17.5781 1.5625Z" fill="white"/>
<path d="M19.9084 18.8224C19.3823 18.3705 18.6791 18.144 17.7996 18.144C16.9195 18.144 16.2188 18.3702 15.6967 18.8224C15.1745 19.2747 14.9136 19.9901 14.9136 20.9684V24.4093C14.9136 25.388 15.1745 26.1033 15.6967 26.5553C16.2188 27.0076 16.9195 27.2337 17.7996 27.2337C18.6791 27.2337 19.3823 27.0076 19.9084 26.5553C20.4345 26.1033 20.6979 25.388 20.6979 24.4093V20.9684C20.6979 19.9901 20.4345 19.2747 19.9084 18.8224V18.8224ZM19.0945 24.4093C19.0945 25.355 18.6627 25.8275 17.7996 25.8275C16.9442 25.8275 16.5167 25.3547 16.5167 24.4093V20.9684C16.5167 20.023 16.9442 19.55 17.7996 19.55C18.6627 19.55 19.0945 20.023 19.0945 20.9684V24.4093Z" fill="white"/>
<path d="M24.5099 26.9345C24.6854 26.8549 24.8218 26.7111 24.9191 26.5027C25.0165 26.2943 25.065 26.0495 25.065 25.7687C25.065 24.9243 24.5667 24.502 23.5703 24.502C23.2883 24.502 23.0414 24.5422 22.8299 24.6222C22.6184 24.7025 22.4573 24.8062 22.3468 24.9338C22.2366 25.061 22.1555 25.1923 22.1039 25.3265C22.052 25.4611 22.0261 25.5966 22.0261 25.7336C22.0261 25.8878 22.0554 25.9918 22.1143 26.0455C22.1732 26.0992 22.301 26.1261 22.4985 26.1261C22.7899 26.1261 22.9358 26.0092 22.9358 25.7755C22.9358 25.4623 23.1448 25.3058 23.5632 25.3058C23.9767 25.3058 24.1837 25.5115 24.1837 25.9229C24.1837 26.1987 24.1275 26.3821 24.0158 26.4734C23.9038 26.5646 23.7451 26.6101 23.54 26.6101C23.3578 26.6101 23.2672 26.7297 23.2672 26.9696C23.2672 27.2095 23.3563 27.3294 23.5352 27.3294C24.0521 27.3294 24.3106 27.5525 24.3106 27.999V28.1329C24.3106 28.4009 24.2508 28.595 24.1309 28.7146C24.0109 28.8345 23.8196 28.8947 23.5562 28.8947C23.3307 28.8947 23.1519 28.8486 23.0203 28.757C22.8888 28.6652 22.8232 28.5397 22.8232 28.3798C22.8232 28.2623 22.7902 28.179 22.7243 28.1296C22.6584 28.0801 22.5339 28.0554 22.3508 28.0554C22.1909 28.0554 22.0779 28.0814 22.0123 28.1329C21.9464 28.1848 21.9135 28.2788 21.9135 28.4149C21.9135 28.7442 22.0511 29.0402 22.326 29.3036C22.601 29.5667 23.0038 29.6982 23.5352 29.6982C24.0381 29.6982 24.4458 29.5712 24.7583 29.3176C25.0708 29.0637 25.2274 28.6688 25.2274 28.1329V27.999C25.2271 27.4774 24.9881 27.1225 24.5099 26.9345V26.9345Z" fill="white"/>
</svg>
