<svg width="29" height="40" viewBox="0 0 29 40" fill="none" xmlns="http://www.w3.org/2000/svg">
<path d="M28.2356 34.6555L19.777 14.0381C19.308 12.8943 19.0699 11.6876 19.0699 10.4514V5.00153C19.0699 4.41467 19.2985 3.86292 19.7135 3.44788C20.2195 2.94189 20.4984 2.26898 20.4984 1.55334V0.78125C20.4984 0.349731 20.1484 0 19.7172 0H8.8093C8.37778 0 8.02805 0.349731 8.02805 0.78125V1.55334C8.02805 2.26898 8.30668 2.94189 8.81266 3.44788C9.2277 3.86292 9.45627 4.41467 9.45627 5.00183V10.4514C9.45627 11.6876 9.21854 12.8943 8.74918 14.0381L6.42496 19.7034C6.42405 19.7055 6.42313 19.7076 6.42222 19.7098L0.290624 34.6555C-0.200404 35.8527 -0.0633802 37.2092 0.657445 38.2837C1.37827 39.3585 2.58097 40 3.87491 40H24.6513C25.9452 40 27.1482 39.3585 27.8691 38.2837C28.5896 37.2089 28.7266 35.8527 28.2356 34.6555V34.6555ZM10.1948 14.631C10.7417 13.2983 11.0188 11.8921 11.0188 10.4514V5.00153C11.0188 3.9975 10.6278 3.05328 9.9177 2.34314C9.70896 2.1344 9.59299 1.8573 9.59055 1.5625H18.9359C18.9335 1.8573 18.8175 2.13409 18.6085 2.34314C17.8987 3.05328 17.5074 3.99719 17.5074 5.00153V10.451C17.5074 11.8918 17.7848 13.298 18.3314 14.6307L20.2177 19.2285H8.30851L10.1948 14.631ZM26.5711 37.4133C26.1347 38.0643 25.435 38.4375 24.6513 38.4375H3.87491C3.09153 38.4375 2.39176 38.0643 1.95505 37.4133C1.62577 36.9223 1.50004 36.3528 1.58548 35.7913H2.87272C3.30393 35.7913 3.65397 35.4413 3.65397 35.0101C3.65397 34.5786 3.30393 34.2288 2.87272 34.2288H2.15494L3.05216 32.0413H4.36991C4.80143 32.0413 5.15116 31.6913 5.15116 31.2601C5.15116 30.8286 4.80143 30.4788 4.36991 30.4788H3.69333L4.59055 28.2913H5.94553C6.37705 28.2913 6.72678 27.9413 6.72678 27.5101C6.72678 27.0786 6.37705 26.7288 5.94553 26.7288H5.23172L6.12925 24.5413H7.52085C7.95237 24.5413 8.3021 24.1913 8.3021 23.7601C8.3021 23.3286 7.95237 22.9788 7.52085 22.9788H6.77012L7.66764 20.7913H20.8586L26.79 35.2487C27.0872 35.9735 27.0075 36.7627 26.5711 37.4133V37.4133Z" fill="white"/>
<path d="M24.3775 34.7043C24.214 34.3049 23.758 34.1138 23.3585 34.2771C22.9594 34.4407 22.768 34.8966 22.9313 35.2961L22.9356 35.3058C23.0595 35.6083 23.3509 35.7914 23.6588 35.7914C23.7574 35.7914 23.8575 35.7728 23.9546 35.7331C24.3537 35.5695 24.5451 35.1133 24.3815 34.7141L24.3775 34.7043Z" fill="white"/>
<path d="M23.2734 32.0127L20.4756 25.1933C20.312 24.7941 19.8558 24.6031 19.4563 24.767C19.0571 24.9305 18.8664 25.3871 19.0299 25.7862L21.8278 32.6057C21.9517 32.9081 22.2431 33.0906 22.5511 33.0906C22.6496 33.0906 22.75 33.072 22.8471 33.032C23.2463 32.8685 23.4373 32.4119 23.2734 32.0127V32.0127Z" fill="white"/>
</svg>
