<svg width="40" height="40" viewBox="0 0 40 40" fill="none" xmlns="http://www.w3.org/2000/svg">
<path d="M17.0434 15.156C16.5147 14.6227 15.8527 14.2827 15.0767 14.122C14.9374 13.0087 14.5554 12.178 14.0847 11.5787C15.5853 9.84336 16.25 7.27867 15.6747 4.8407C14.9693 1.85469 12.5766 0 9.42867 0C2.91531 0 0 7.53398 0 15C0 22.466 2.91531 30 9.42867 30C12.5766 30 14.97 28.1453 15.6747 25.1593C16.262 22.6727 15.5587 20.0546 13.9947 18.3193C14.5194 17.7273 14.8513 17.0099 15.0167 16.1866C15.3007 16.2966 15.496 16.438 15.6214 16.5646C17.1861 18.1426 17.1294 23.5453 17.0474 31.7246C17.0261 33.912 17.0008 36.332 17.0008 38.9999C17.0008 39.5526 17.4481 39.9999 18.0008 39.9999C18.5534 39.9999 19.0008 39.5526 19.0008 38.9999C19.0008 36.3399 19.0261 33.9259 19.0474 31.7439C19.1447 22.1466 19.194 17.328 17.0434 15.156ZM13.1427 15C13.1427 18.714 8.93664 17.54 11.2853 18.714C15 20.5713 15 28 9.42867 28C3.85734 28 2 20.5713 2 15C2 9.42867 3.85734 2 9.42867 2C15 2 15 9.42867 11.286 11.286C9.62469 12.116 13.1427 11.286 13.1427 15Z" fill="white"/>
<path d="M30.5713 0C27.4233 0 25.03 1.85469 24.3253 4.8407C23.75 7.27867 24.4146 9.84336 25.9153 11.5787C25.4446 12.178 25.0626 13.0087 24.9233 14.122C24.1472 14.2827 23.4853 14.6227 22.9572 15.156C20.8065 17.328 20.8559 22.146 20.9533 31.744C20.9746 33.9253 20.9999 36.34 20.9999 39C20.9999 39.5527 21.4472 40 21.9999 40C22.5526 40 22.9999 39.5527 22.9999 39C22.9999 36.332 22.9746 33.912 22.9533 31.7247C22.8712 23.5447 22.8146 18.1427 24.3793 16.5647C24.5046 16.4373 24.6999 16.2967 24.984 16.1867C25.1493 17.0101 25.4813 17.7274 26.006 18.3194C24.442 20.0547 23.7394 22.6727 24.326 25.1594C25.0307 28.1454 27.4233 30.0001 30.5713 30.0001C37.0847 30 40 22.466 40 15C40 7.53398 37.0847 0 30.5713 0ZM30.5713 28C25 28 25 20.5713 28.714 18.714C31.0633 17.5393 26.8566 18.714 26.8566 15C26.8566 11.286 30.3746 12.116 28.714 11.286C25 9.42867 25 2 30.5713 2C36.1426 2 38 9.42867 38 15C38 20.5713 36.1426 28 30.5713 28Z" fill="white"/>
</svg>
