<svg width="29" height="40" viewBox="0 0 29 40" fill="none" xmlns="http://www.w3.org/2000/svg">
<path d="M26.2367 24.5064C26.2376 24.5082 26.2385 24.51 26.2392 24.5115C26.3719 24.8088 26.6536 24.983 26.9524 24.983C27.0592 24.983 27.1681 24.9608 27.2731 24.9141C27.6729 24.7365 27.8456 24.2808 27.6668 23.8768C27.4882 23.4727 27.0347 23.2942 26.6344 23.4703C26.234 23.6467 26.0594 24.1017 26.2367 24.5064V24.5064Z" fill="white"/>
<path d="M28.3922 26.7831C28.3251 26.3571 27.925 26.066 27.4987 26.1337C27.0726 26.2009 26.7818 26.601 26.8493 27.0273C27.0244 28.1372 27.0726 29.2685 26.9921 30.3894C26.8053 32.988 25.4918 35.3595 23.3883 36.8964L22.86 37.2821C21.8251 38.038 20.6011 38.4375 19.3197 38.4375C18.8558 38.4375 18.3916 38.3835 17.9406 38.277L15.8703 37.7881C11.8688 36.8433 8.21888 34.6228 5.59285 31.5359C4.42555 30.1636 3.89912 29.1653 3.49476 28.1372C3.52711 28.0328 3.53871 27.9202 3.52345 27.8046C3.51918 27.771 3.13466 24.3967 7.89326 22.2305C11.1568 20.7449 12.6836 18.2043 13.2149 17.1091C16.7928 17.6028 18.0242 18.6099 18.1157 18.689C18.3046 18.8892 18.5653 18.9539 18.835 18.8928C18.9 18.8782 18.9644 18.8641 19.0285 18.8507C21.5319 18.3252 24.114 19.6585 25.1693 22.0197C25.3454 22.4136 25.8074 22.5903 26.2014 22.4142C26.5954 22.2382 26.7717 21.7761 26.596 21.3821C25.9981 20.0452 24.9929 18.9194 23.7413 18.1714C23.742 18.1686 23.7432 18.1662 23.7441 18.1635C23.9016 17.6602 23.9812 17.1353 23.9812 16.6037C23.9812 16.4972 23.9769 16.3916 23.9708 16.2866H24.5128C24.944 16.2866 25.2941 15.9369 25.2941 15.5054C25.2941 15.0739 24.944 14.7241 24.5128 14.7241H23.6297C23.4288 14.2059 23.1484 13.7271 22.802 13.3038L23.1557 12.9501C23.4609 12.645 23.4609 12.1503 23.1557 11.8451C22.8505 11.5402 22.3562 11.5402 22.051 11.8451L21.642 12.254C21.0085 11.8335 20.2782 11.5475 19.4921 11.4371C20.5272 10.6091 21.8871 10.217 23.5442 10.2734C23.7557 10.2814 23.9614 10.2014 24.114 10.0543C24.2663 9.90723 24.352 9.70459 24.352 9.4928V6.51672C24.352 6.11023 24.0404 5.77179 23.6351 5.73822C23.5085 5.72784 22.0455 5.61646 20.1433 5.84534C19.2928 4.19952 18.0956 2.97699 16.7186 2.29828L17.2716 1.47278C17.5118 1.1142 17.4157 0.628967 17.0571 0.389099C16.6988 0.148926 16.2136 0.244751 15.9734 0.603332L15.1818 1.78528C14.8443 1.72302 14.5003 1.68976 14.1521 1.68976C13.9513 1.68976 13.7514 1.70105 13.5534 1.72211V0.78125C13.5534 0.349731 13.2036 0 12.7721 0C12.3406 0 11.9909 0.349731 11.9909 0.78125V2.11731C11.2578 2.41577 10.5635 2.86652 9.92939 3.46344C9.45485 3.90991 9.02791 4.42627 8.65345 4.99908C8.36049 4.42108 7.76051 4.02344 7.06929 4.02344H4.94862C3.96962 4.02344 3.17311 4.81995 3.17311 5.79895V13.7851C2.78004 14.0906 2.40101 14.4485 2.03846 14.8621C0.325817 16.8155 -0.0150644 19.3753 0.000499591 21.1786C0.0181998 23.2184 0.511364 25.2979 1.29078 26.6312C1.40858 26.9467 1.51448 27.251 1.61732 27.5461C2.14253 29.0518 2.63844 30.4742 4.40266 32.5482C7.24293 35.8871 11.1879 38.288 15.5114 39.3088L17.5814 39.7977C18.1502 39.9319 18.7349 40 19.3197 40C20.9346 40 22.4776 39.4965 23.7813 38.544L24.3096 38.1583C26.7852 36.3498 28.3309 33.5593 28.5506 30.5014C28.6397 29.2618 28.5863 28.0109 28.3922 26.7831V26.7831ZM18.8585 17.2916C18.5436 17.0724 18.0068 16.7603 17.1679 16.4471C17.2326 15.6952 17.4508 14.2783 18.1844 12.9935C18.3745 12.9636 18.5686 12.9477 18.7624 12.9477C20.7784 12.9477 22.4187 14.588 22.4187 16.604C22.4187 16.9144 22.3793 17.2208 22.3031 17.5177C21.194 17.1582 20.0063 17.0773 18.8585 17.2916V17.2916ZM22.7895 7.2699V8.71521C20.8541 8.79913 19.2574 9.4455 18.0349 10.6412C16.3179 12.3212 15.8001 14.6548 15.6447 15.9808C14.8974 15.7944 14.0099 15.6262 12.9598 15.5008C12.7224 15.2808 12.4859 15.0732 12.2503 14.8773C12.2515 14.8584 12.253 14.8398 12.253 14.8206C12.253 12.7222 12.9311 11.0327 14.2681 9.7995C16.8108 7.45422 21.0976 7.25342 22.7895 7.2699ZM14.1521 3.25226C14.5437 3.25226 14.9294 3.30994 15.3048 3.41949C15.3051 3.41949 15.3057 3.4198 15.306 3.4198C16.5511 3.78357 17.679 4.7287 18.5076 6.11725C16.6915 6.50879 14.7265 7.25311 13.2134 8.64655C11.7727 9.97314 10.9438 11.6968 10.7406 13.7802C10.1012 13.3835 9.46858 13.0786 8.8448 12.8671V8.34961C8.85823 8.31818 8.87074 8.28613 8.88051 8.25256C9.74202 5.26184 11.8605 3.25226 14.1521 3.25226ZM4.73561 5.79895C4.73561 5.68146 4.83113 5.58594 4.94862 5.58594H7.06929C7.18678 5.58594 7.2823 5.68146 7.2823 5.79895V12.5308C7.02046 12.5079 6.76075 12.5018 6.50258 12.5134C5.89131 12.5406 5.30171 12.6657 4.73561 12.886V5.79895ZM3.21339 15.8923C4.22322 14.7403 5.35328 14.1287 6.57216 14.0744C8.12642 14.0048 9.91475 14.8495 11.7592 16.5207C11.2822 17.4567 9.95503 19.5752 7.24598 20.8084C4.25618 22.1692 2.97993 24.0155 2.4355 25.3244C2.42634 25.3467 2.4178 25.3683 2.40864 25.3903C1.42109 23.2025 0.890087 18.5422 3.21339 15.8923Z" fill="white"/>
<path d="M9.9077 31.4195C9.57567 31.1439 9.08312 31.19 8.80754 31.522C8.53227 31.8541 8.57805 32.3466 8.91008 32.6219C11.0234 34.3754 13.5546 35.6358 16.2294 36.2675C16.2898 36.2819 16.3503 36.2886 16.4098 36.2886C16.7638 36.2886 17.0845 36.0463 17.1694 35.6868C17.2685 35.2668 17.0085 34.846 16.5886 34.7468C14.1469 34.1703 11.8367 33.0195 9.9077 31.4195V31.4195Z" fill="white"/>
<path d="M6.86452 29.4249C6.53828 29.7075 6.50136 30.1985 6.78364 30.5244C6.93837 30.71 7.16054 30.8055 7.38454 30.8055C7.56093 30.8055 7.73824 30.7463 7.88411 30.6245C8.21553 30.3484 8.2604 29.8558 7.98421 29.5244L7.96834 29.5058C7.68575 29.1795 7.19045 29.1423 6.86452 29.4249V29.4249Z" fill="white"/>
</svg>
