<svg width="40" height="32" viewBox="0 0 40 32" fill="none" xmlns="http://www.w3.org/2000/svg">
<path d="M20.0005 31.6461C14.1899 31.6461 8.38098 30.413 2.61033 27.9468C0.445726 27.0204 -0.562369 24.6308 0.317468 22.5062L9.20411 1.0318C9.39243 0.576881 9.77236 0.230305 10.2456 0.0819727C10.7388 -0.0763574 11.2787 -0.00301121 11.7236 0.281936C17.036 3.66631 22.1967 3.81964 27.4991 0.753489C28.1506 0.376918 28.9338 0.303573 29.6453 0.543528C30.3468 0.781844 30.9085 1.30339 31.1867 1.9749L39.6835 22.5078C40.5617 24.6324 39.5535 27.0203 37.3889 27.9467C31.62 30.4131 25.811 31.6461 20.0005 31.6461ZM10.8288 1.68504L6.73792 11.3499L1.85718 23.1444C1.33228 24.4158 1.95053 25.8523 3.26692 26.4138C14.3682 31.1629 25.6294 31.1613 36.7341 26.4138C38.0505 25.8523 38.6704 24.4158 38.1455 23.1444L29.6487 2.61151C29.5521 2.37991 29.3621 2.20494 29.1121 2.11996C28.8522 2.03161 28.5689 2.05833 28.3357 2.1933C22.5234 5.55432 16.6327 5.38271 10.8288 1.68504V1.68504Z" fill="white"/>
<path d="M20.0005 24.9758C13.9666 24.9758 7.93269 23.5327 1.94216 20.6466C1.52724 20.4466 1.35227 19.9484 1.55223 19.5352C1.75383 19.1203 2.2521 18.9453 2.66367 19.1452C14.1665 24.6859 25.831 24.6859 37.3356 19.1452C37.7505 18.9453 38.2488 19.1203 38.4471 19.5352C38.6453 19.9501 38.4721 20.4466 38.0571 20.6466C32.0682 23.5327 26.0343 24.9758 20.0005 24.9758V24.9758Z" fill="white"/>
<path d="M19.9505 18.3304C19.4906 18.3304 19.1173 17.9571 19.1173 17.4972C19.1173 17.0373 19.4906 16.664 19.9505 16.664C24.9662 16.664 30.0503 15.6042 35.0594 13.5113C35.4843 13.3346 35.9726 13.5346 36.1492 13.9595C36.3258 14.3844 36.1258 14.8727 35.7009 15.0493C30.4869 17.2256 25.1879 18.3304 19.9505 18.3304V18.3304Z" fill="white"/>
<path d="M6.8529 15.9641C6.76455 15.9641 6.67293 15.9507 6.58459 15.9191C5.83137 15.6625 5.05987 15.3708 4.30665 15.0459C3.88509 14.8643 3.69012 14.3744 3.87173 13.9511C4.05334 13.5262 4.54325 13.3312 4.96653 13.5162C5.67975 13.8245 6.4079 14.0994 7.12113 14.3427C7.55769 14.491 7.78936 14.9642 7.64103 15.3991C7.52277 15.7458 7.19947 15.9641 6.8529 15.9641Z" fill="white"/>
<path d="M19.9821 11.653C15.5545 11.653 11.1254 10.8748 6.72453 9.31684C6.29125 9.16522 6.06466 8.68859 6.21799 8.25367C6.3696 7.8204 6.84623 7.5938 7.28115 7.74713C15.7279 10.7366 24.288 10.7316 32.7181 7.73049C33.1496 7.57716 33.6279 7.80212 33.7829 8.23704C33.9362 8.67032 33.7113 9.14687 33.2763 9.30184C28.8688 10.8682 24.4263 11.653 19.9821 11.653V11.653Z" fill="white"/>
<path d="M13.3351 19.9968C11.497 19.9968 10.0023 18.5021 10.0023 16.664C10.0023 14.826 11.497 13.3313 13.3351 13.3313C15.1731 13.3313 16.6678 14.826 16.6678 16.664C16.6678 18.5021 15.173 19.9968 13.3351 19.9968ZM13.3351 14.9977C12.4169 14.9977 11.6687 15.7459 11.6687 16.664C11.6687 17.5822 12.417 18.3304 13.3351 18.3304C14.2533 18.3304 15.0014 17.5822 15.0014 16.664C15.0014 15.7459 14.2532 14.9977 13.3351 14.9977V14.9977Z" fill="white"/>
</svg>
