<svg width="37" height="40" viewBox="0 0 37 40" fill="none" xmlns="http://www.w3.org/2000/svg">
<path d="M33.9572 20.3996L34.3757 20.1261C33.7603 19.1843 33.2954 18.4529 33.0213 17.8503C32.7446 17.242 32.7151 16.8755 32.8129 16.6152L32.813 16.615C34.0722 13.2628 33.7518 10.0146 31.848 7.26571L31.437 7.55039L31.848 7.26571C29.2579 3.52593 23.9921 1.06434 18.7528 1.0625V1.06244L18.7452 1.06256C10.8689 1.18005 4.42579 5.33553 2.00838 11.9744L2.45027 12.1353L2.00838 11.9744C-0.379281 18.5319 1.83058 25.7475 7.67762 30.8043L7.67766 30.8043C8.09828 31.168 8.24051 31.8714 7.99436 33.1149C7.755 34.3242 7.18942 35.8388 6.49616 37.5845C6.40286 37.8192 6.31346 38.0444 6.23108 38.2553L5.96466 38.9373H6.6968H21.7679H22.0726L22.2123 38.6664C22.3089 38.4791 22.39 38.1994 22.4535 37.9536C22.5206 37.6941 22.5824 37.413 22.6311 37.1918L22.6319 37.1881C22.6319 37.1881 22.6319 37.1881 22.6319 37.188C22.7934 36.4543 22.9682 35.6764 23.2897 35.0782C23.5982 34.5044 23.9918 34.179 24.5962 34.179C24.6746 34.179 24.7575 34.1855 24.8422 34.1987L24.9196 33.7048M33.9572 20.3996L7.16252 38.6192C7.18574 38.5598 7.20956 38.4991 7.23391 38.4373H21.7679C21.9027 38.1759 22.0453 37.5274 22.1436 37.0806L22.1437 37.0801C22.4596 35.6446 22.8922 33.679 24.5962 33.679C24.7017 33.679 24.8105 33.6877 24.9196 33.7048M33.9572 20.3996L34.3757 20.1261L34.3775 20.1288C34.6143 20.4911 34.9133 20.9487 35.1675 21.3705C35.295 21.5819 35.4145 21.7897 35.5107 21.9758C35.6024 22.1533 35.6895 22.342 35.7325 22.5057L35.7982 22.7559L35.632 22.954C35.4991 23.1125 35.2698 23.2926 35.0738 23.4381C34.8645 23.5935 34.6362 23.7502 34.4675 23.866L34.4643 23.8683C34.0225 24.1716 33.6733 24.413 33.4178 24.6562C33.1681 24.8938 33.061 25.0849 33.0348 25.2694C33.0253 25.3371 33.0292 25.3993 33.071 25.7258L32.5751 25.7893L33.071 25.7258L33.072 25.7331C33.0918 25.8877 33.1367 26.2389 33.1499 26.5035L33.1697 26.9032L32.7841 27.0101C32.3813 27.1218 31.8307 27.1762 31.4146 27.2174L31.3909 27.2197C30.9362 27.2649 30.5616 27.3033 30.2663 27.3804C29.8861 27.4796 29.7417 27.6349 29.6807 27.7334C29.6122 27.8438 29.6023 27.9588 29.6055 28.0297L29.1073 28.0516L29.6054 28.0294C29.6143 28.2283 29.7161 28.3994 30.0374 28.5917C30.3768 28.7949 30.8531 28.9549 31.4461 29.1507L31.4462 29.1507L31.4685 29.1581C31.7626 29.2552 32.2402 29.413 32.528 29.5453L32.8458 29.6914L32.8175 30.04L32.8015 30.2372L32.3031 30.197M33.9572 20.3996L30.655 35.398M24.9196 33.7048C24.9427 33.7084 24.9655 33.713 24.988 33.7188L25.6936 33.8959L25.6974 33.8968C28.0977 34.4998 29.6836 34.8982 30.6549 34.898M24.9196 33.7048L24.8409 34.1985C24.8504 34.2 24.858 34.2016 24.864 34.2032L24.8664 34.2038L25.5718 34.3808L25.5719 34.3808L25.5836 34.3838C26.7765 34.6834 27.7797 34.9355 28.6061 35.1123C29.4292 35.2883 30.1127 35.3981 30.6549 35.398V34.898M30.6549 34.898C31.3848 34.898 31.5788 34.6931 31.7612 34.203C32.0409 33.4519 32.1509 32.0867 32.3031 30.197M30.6549 34.898L30.655 35.398M32.3031 30.197L30.655 35.398M32.3031 30.197L32.8015 30.2375L32.801 30.243C32.7254 31.182 32.6591 32.005 32.5763 32.6872C32.4943 33.3634 32.3917 33.9428 32.2298 34.3775C32.1314 34.6418 31.9932 34.9411 31.6979 35.1455C31.4081 35.346 31.0509 35.398 30.655 35.398M34.8466 19.8185L34.8466 19.8185C35.3335 20.5635 35.7097 21.1494 35.9657 21.6385C36.225 22.1338 36.3263 22.4675 36.3263 22.7148C36.3263 22.9397 36.2205 23.1653 35.9458 23.4415C35.6635 23.7252 35.2667 23.9999 34.7828 24.3322C34.6345 24.434 34.4351 24.5708 34.2491 24.7069C34.0724 24.8361 33.8746 24.9884 33.7489 25.1189L33.5836 25.2906L33.6129 25.5271C33.6161 25.5531 33.6198 25.5818 33.6232 25.6087C33.6252 25.6245 33.6272 25.6398 33.6289 25.6536L33.6291 25.6546C33.6913 26.1406 33.7389 26.5336 33.7067 26.8491C33.6768 27.1431 33.589 27.271 33.454 27.3466L33.454 27.3466C33.086 27.5526 32.562 27.6549 31.962 27.7255L31.8621 28.6963C32.2032 28.8102 32.5154 28.9206 32.7623 29.0356L32.7625 29.0358C33.3318 29.3007 33.4209 29.5576 33.4048 29.7554L33.4048 29.7556L33.3622 30.2824L33.3622 30.2825C33.191 32.4073 33.082 33.701 32.757 34.5738C32.5671 35.0839 32.3107 35.4158 31.9946 35.6264C31.6757 35.8389 31.2468 35.9607 30.655 35.9608C29.5681 35.9609 27.9828 35.5667 25.4347 34.9265L25.4346 34.9264L24.7707 34.7598L24.7363 34.7512L24.701 34.7475C24.6697 34.7442 24.6341 34.7417 24.5962 34.7417C24.217 34.7417 23.9838 35.022 23.872 35.1892C23.7426 35.3826 23.641 35.6256 23.5596 35.8603C23.3967 36.3303 23.272 36.8971 23.1841 37.2967L23.1814 37.3093C23.0569 37.875 22.9503 38.3523 22.7977 38.7291C22.6457 39.1039 22.4715 39.2871 22.3342 39.3797C22.197 39.4723 22.0588 39.5 21.9356 39.5H5.57914C5.48955 39.5 5.40521 39.4572 5.35222 39.3848L5.35209 39.3846C5.29926 39.3125 5.2839 39.2192 5.31111 39.1334C5.45085 38.6938 5.68742 38.0973 5.97337 37.377C5.97338 37.377 5.97338 37.377 5.97339 37.377L5.97946 37.3617C6.40966 36.2785 6.95784 34.8982 7.27794 33.7185C7.50963 32.8648 7.56868 32.3173 7.55693 31.9612C7.54521 31.6063 7.46124 31.4023 7.36527 31.2866L7.3388 31.2547L7.30744 31.2276C4.20465 28.5445 2.0619 25.2544 1.0954 21.7224L0.678029 21.8366L1.09539 21.7224C0.186749 18.402 0.320644 14.9659 1.47983 11.7822C2.65056 8.56679 4.78925 5.81805 7.66995 3.83305L7.66997 3.83304C10.7366 1.71974 14.5624 0.561402 18.7429 0.500103L18.7429 0.500285L18.7497 0.5C24.2135 0.500879 29.6606 3.11956 32.3104 6.94547C34.3072 9.82846 34.6792 13.2093 33.3564 16.7677L33.3194 16.8672L33.3261 16.9732C33.3396 17.1894 33.4411 17.4348 33.5348 17.6338C33.639 17.8548 33.7769 18.105 33.9254 18.3577C34.2214 18.8616 34.5794 19.4096 34.8432 19.8133L34.8466 19.8185Z" stroke="white"/>
<path d="M8.34471 27.7422C8.41008 27.8268 8.47337 27.8648 8.52098 27.8843C8.57243 27.9053 8.61955 27.91 8.6497 27.91C8.70958 27.91 8.77653 27.8969 8.83645 27.8538C8.89017 27.8151 8.99403 27.7127 9.06177 27.4284L19.9124 3.65616L19.9084 3.65614L19.8999 3.65608L19.8912 3.65599L19.8912 3.65591C19.7755 3.65272 19.6609 3.65063 19.5459 3.65063C16.9335 3.65063 14.0761 4.44114 11.5096 5.88886L11.5096 5.88887C8.70666 7.46984 6.58785 9.63292 5.36109 12.1309C4.28456 14.3235 3.93254 16.6919 4.31871 19.1829L3.82462 19.2595L4.31872 19.1829C4.74651 21.9428 6.08879 24.8227 8.34471 27.7422ZM8.34471 27.7422L7.94907 28.0479L8.34471 27.7422ZM25.7256 12.0824L25.1937 11.4203C24.9486 11.1152 24.6322 10.8891 24.2627 10.7664L24.2627 10.7664C23.5131 10.5173 22.6962 10.7423 22.125 11.3947C22.0226 11.5117 22.0344 11.6893 22.1513 11.7916L22.1513 11.7916C22.2681 11.8938 22.4457 11.8822 22.5481 11.7653C22.5481 11.7652 22.5481 11.7652 22.5481 11.7652L22.9243 12.0946L25.7256 12.0824ZM25.7256 12.0824L26.0465 11.2961M25.7256 12.0824L26.0465 11.2961M26.0465 11.2961C26.359 10.53 26.4422 9.73789 26.3076 8.91444L26.3076 8.91443C26.0082 7.08301 25.0147 5.93639 23.8397 5.24271C22.6845 4.5607 21.3676 4.32216 20.3839 4.24581L19.9571 4.21269L19.8586 4.6292C19.793 4.90659 19.7884 5.23903 19.8283 5.58128M26.0465 11.2961L16.5931 7.9456M13.1931 16.5824C13.6129 16.4814 14.0345 16.7393 14.1358 17.1588C14.2369 17.5782 13.9789 18.0002 13.5595 18.1014C13.4046 18.1387 13.2594 18.2483 13.1439 18.4061C12.9858 18.4814 12.8303 18.5566 12.6779 18.6318L12.7547 18.7875L12.4588 18.7074C12.4587 18.7075 12.4587 18.7075 12.4587 18.7076C12.4284 18.8198 12.4095 18.9317 12.4008 19.04L12.33 19.9186L13.1204 19.5286C14.0316 19.0789 15.0606 18.6265 16.146 18.1498C16.9936 17.7776 17.8866 17.3853 18.7732 16.9704L19.6839 16.5442L18.7944 16.0752C18.2178 15.7712 17.7228 15.3925 17.3403 14.9665L17.093 14.6911L16.7574 14.8472C16.4291 14.9999 16.0461 15.0975 15.7187 15.1394L15.7185 15.1394C15.5799 15.1572 15.4129 15.1706 15.2267 15.1706C14.5562 15.1706 13.6697 14.9975 12.9225 14.2507L12.9224 14.2506C12.8126 14.1409 12.8125 13.9629 12.9222 13.853L11.4375 19.8825C11.3028 19.4425 11.2961 18.9372 11.4331 18.4304C11.6867 17.4913 12.3612 16.7831 13.1931 16.5824ZM13.1931 16.5824L13.3103 17.0685M13.1931 16.5824L13.3101 17.0686C13.3102 17.0685 13.3103 17.0685 13.3103 17.0685M13.489 18.7959C14.2562 18.434 15.087 18.0688 15.9449 17.692C16.6136 17.3984 17.3068 17.0939 18.0014 16.7763C18.1081 16.8401 18.217 16.9013 18.3281 16.9598L18.5613 16.5175L18.3493 16.0646C18.2456 16.1132 18.1418 16.1614 18.0379 16.2093C17.6316 15.9429 17.2705 15.6371 16.9683 15.3006C16.5853 15.4787 16.151 15.5881 15.7821 15.6353C15.625 15.6555 15.4366 15.6706 15.2267 15.6706C14.4725 15.6706 13.4397 15.4745 12.569 14.6043L13.489 18.7959ZM13.489 18.7959C13.465 18.8432 13.4425 18.9001 13.4241 18.9684L13.4241 18.9685C13.4101 19.0203 13.4015 19.0717 13.3975 19.1203L12.8991 19.0802L12.7548 18.7876L13.489 18.7959ZM13.3103 17.0685C12.6838 17.2196 12.1297 17.7688 11.9158 18.5608L11.9157 18.5608C11.8013 18.9842 11.8106 19.3932 11.9156 19.7362L12.024 20.0901L11.717 20.2971C9.7134 21.6479 9.05855 24.1533 8.75123 25.9037L8.5383 27.1164L7.84544 26.0986C5.36912 22.4608 4.33361 18.8638 4.86796 15.5104L5.01568 14.5833L5.70256 15.2232C6.43085 15.9018 7.17537 16.3908 8.04441 16.5613L8.35151 16.6216L8.43152 16.9241C8.56212 17.418 8.53104 17.9635 8.1897 18.3704L8.18956 18.3705C8.08981 18.4893 8.10518 18.6667 8.22418 18.7666L13.3103 17.0685ZM13.3103 17.0685C13.4618 17.0322 13.6133 17.1251 13.6497 17.2761M13.3103 17.0685L13.6497 17.2761M13.6497 17.2761C13.6861 17.4271 13.5931 17.579 13.4422 17.6154L13.6497 17.2761ZM8.62042 18.732L8.62043 18.732C8.97534 18.3093 9.12839 17.7495 9.0443 17.1234L8.98022 16.6462L9.45461 16.5641C9.72593 16.5172 10.0131 16.4438 10.3187 16.3382C10.4657 16.2873 10.5434 16.1272 10.4928 15.9805C10.442 15.8336 10.2818 15.7558 10.1351 15.8064L8.62042 18.732ZM8.62042 18.732C8.56497 18.7981 8.4861 18.8324 8.40462 18.8324C8.34043 18.8324 8.27715 18.8111 8.22422 18.7667L8.62042 18.732ZM8.53448 16.0562L8.53449 16.0561L8.51903 16.0547L8.51692 16.0545L8.51171 16.0541C7.34915 15.9646 6.44452 15.2331 5.44149 14.1622L5.23504 13.9418L5.33405 13.6565C5.48369 13.2253 5.65999 12.7991 5.86627 12.3791L8.53448 16.0562ZM8.53448 16.0562L8.54218 16.0567M8.53448 16.0562L8.54218 16.0567M8.54218 16.0567C9.04725 16.0906 9.57025 16.0015 10.1351 15.8065L8.54218 16.0567ZM8.76049 8.55914L8.90186 8.53149C9.25594 8.46225 9.77114 8.47525 10.272 8.60721L10.272 8.60722C10.5674 8.68506 10.8043 8.78955 10.9837 8.90483C11.0731 8.96228 11.1538 9.02605 11.2213 9.09559C11.2825 9.15876 11.3589 9.25335 11.4016 9.37683L11.4017 9.37712C11.4417 9.49291 11.5503 9.56681 11.6674 9.56681C11.6971 9.56681 11.7278 9.56197 11.7588 9.55122L11.7595 9.55099C11.9062 9.5003 11.9841 9.3403 11.9334 9.19338L11.9334 9.19336C11.7824 8.75638 11.3499 8.34917 10.5752 8.10909L9.59475 7.80524L10.4384 7.22054C13.0171 5.43336 16.0718 4.41623 18.7322 4.24101L19.331 4.20158L19.2617 4.79762C19.2324 5.05042 19.2331 5.33376 19.2695 5.64645L19.2695 5.64645C19.2908 5.82888 19.324 6.01945 19.368 6.21501L19.5236 6.90694L18.8196 6.82101C17.8371 6.70109 16.8948 7.01273 16.2541 7.49671L8.76049 8.55914ZM8.76049 8.55914L8.6555 8.65776M8.76049 8.55914L8.6555 8.65776M8.6555 8.65776C7.53064 9.71436 6.56463 10.9568 5.86629 12.379L8.6555 8.65776ZM16.5931 7.9456L16.5931 7.94559C17.3578 7.36792 18.6034 7.09 19.7612 7.69638L19.9056 7.772L19.9777 7.91818C20.3489 8.67103 20.7832 9.24523 21.1492 9.50271C21.199 9.53771 21.2548 9.55399 21.3104 9.55399C21.4003 9.55399 21.4866 9.512 21.5411 9.43444L21.5411 9.43442C21.6305 9.30728 21.5998 9.13183 21.4729 9.04257L21.4728 9.04253C21.2866 8.91159 21.1092 8.70189 20.9548 8.48274C20.7931 8.25326 20.6293 7.97386 20.4786 7.66755C20.1793 7.05931 19.9128 6.30674 19.8283 5.58128M16.5931 7.9456C16.5418 7.98438 16.483 8.00259 16.4241 8.00259C16.3377 8.00259 16.2543 7.96378 16.1992 7.89078C16.1056 7.76692 16.1301 7.59049 16.254 7.49677L16.5931 7.9456ZM19.8283 5.58128L20.321 5.52391L19.8283 5.5813C19.8283 5.58129 19.8283 5.58129 19.8283 5.58128ZM16.8877 11.6981C17.0382 11.7363 17.1294 11.8892 17.0912 12.0398L12.9222 13.853C13.0322 13.743 13.2104 13.7432 13.32 13.8527L13.32 13.8528C14.3084 14.8404 15.6628 14.6606 16.3191 14.4254L16.7891 14.2568L16.6212 13.7866C16.4099 13.1946 16.3799 12.5568 16.546 11.9017C16.5842 11.7513 16.7373 11.6601 16.8877 11.6981Z" fill="black" stroke="white"/>
<path d="M12.4601 12.2896L12.46 12.2896L12.4626 12.2981C12.5089 12.4485 12.4236 12.607 12.2774 12.652L12.2769 12.6521C12.2482 12.661 12.2199 12.665 12.1929 12.665C12.0724 12.665 11.9636 12.5877 11.9268 12.4694L11.9199 12.4467C11.8753 12.2956 11.9623 12.1383 12.1084 12.0948L12.1087 12.0947C12.2593 12.0498 12.4129 12.1339 12.4571 12.2794L12.4601 12.2896Z" stroke="white"/>
<path d="M15.4517 9.16046L15.4552 9.1605C15.6104 9.1623 15.7348 9.28961 15.733 9.44497L15.7326 9.4738L15.7326 9.4738V9.48038C15.7326 9.63569 15.6067 9.76163 15.4514 9.76163C15.2968 9.76163 15.1713 9.63685 15.1701 9.48252L15.1706 9.43819C15.1706 9.43819 15.1706 9.43819 15.1706 9.43819C15.1724 9.28038 15.3024 9.15769 15.4517 9.16046Z" stroke="white"/>
<path d="M7.35781 19.7304L7.35778 19.7303C7.30913 19.5835 7.15054 19.5036 7.00405 19.5513L6.97264 19.562L6.96598 19.5643L6.96597 19.5642C6.8183 19.6123 6.73746 19.7709 6.78546 19.9187L7.35781 19.7304ZM7.35781 19.7304C7.40657 19.8776 7.327 20.0364 7.18 20.0855L7.17998 20.0855M7.35781 19.7304L7.17998 20.0855M7.17998 20.0855L7.17245 20.0881M7.17998 20.0855L7.17245 20.0881M7.17245 20.0881C7.15643 20.0938 7.14771 20.0967 7.14019 20.0992L7.17245 20.0881ZM7.05281 20.1133C6.9338 20.1133 6.82401 20.037 6.78549 19.9188L7.14008 20.0992C7.10995 20.109 7.08058 20.1133 7.05281 20.1133Z" stroke="white"/>
<path d="M31.069 16.4942L31.069 16.4942C30.5505 16.1845 29.7866 16.0571 28.9648 16.196M31.069 16.4942L31.1662 16.8799C31.0864 17.0132 30.9137 17.0567 30.7805 16.9771L30.7805 16.9771C30.2667 16.6702 29.614 16.6634 29.1202 16.7381C28.8627 16.7771 28.6175 16.8426 28.4133 16.9238C28.3113 16.9643 28.2119 17.0118 28.1231 17.0665C28.0405 17.1175 27.9379 17.1924 27.8581 17.2981L27.8439 17.317L27.8314 17.3371C27.7791 17.4221 27.6893 17.4692 27.5944 17.4692C27.5443 17.4692 27.4935 17.456 27.4461 17.4268L27.446 17.4268C27.3158 17.3466 27.2729 17.1717 27.3556 17.0375L27.3556 17.0374C27.511 16.7851 27.7871 16.589 28.1171 16.4438C28.4416 16.3011 28.7703 16.2289 28.9648 16.196M31.069 16.4942C31.2023 16.5738 31.2458 16.7464 31.1662 16.8798L31.069 16.4942ZM28.9648 16.196L28.882 15.7063L28.9648 16.196Z" fill="black" stroke="white"/>
</svg>
