<svg width="36" height="40" viewBox="0 0 36 40" fill="none" xmlns="http://www.w3.org/2000/svg">
<path d="M33.6503 31.4671C33.2168 28.8678 31.3942 26.7349 28.8942 25.9013L23.3426 24.051V23.2258H22.0522V24.4374L21.0897 28.2884L18.4839 25.1613H16.5884L13.9826 28.2884L13.02 24.4374V23.2258H11.7297V24.051L6.17871 25.9013C3.67871 26.7349 1.85613 28.8678 1.42258 31.4671L0 40H35.0716L33.6503 31.4671ZM18.1813 38.7097V28.3871H16.891V38.7097H7.28129L7.85548 32.9678L6.57161 32.8394L5.98451 38.7103H1.52387L2.69484 31.68C3.04968 29.5529 4.54064 27.8084 6.58645 27.1258L10.4393 25.8413V31.7045C9.32903 31.9929 8.50387 32.9949 8.50387 34.1936C8.50387 35.6168 9.66129 36.7742 11.0845 36.7742C12.5077 36.7742 13.6652 35.6168 13.6652 34.1936C13.6652 32.9949 12.84 31.9929 11.7297 31.7045V25.411L11.9181 25.3484L13.3477 31.0665L17.1935 26.4516H17.8787L21.7245 31.0665L23.1542 25.3484L23.3426 25.411V30.5684L20.8981 31.791C20.0187 32.231 19.4716 33.1155 19.4716 34.0994V34.8387C19.4716 36.262 20.629 37.4194 22.0522 37.4194H22.6974V36.1291H22.0522C21.3406 36.1291 20.7619 35.5503 20.7619 34.8387V34.0994C20.7619 33.6078 21.0355 33.1652 21.4748 32.9452L23.9877 31.6891L26.5006 32.9452C26.94 33.1652 27.2135 33.6078 27.2135 34.0994V34.8387C27.2135 35.5503 26.6348 36.1291 25.9232 36.1291H25.2781V37.4194H25.9232C26.5658 37.4194 27.1464 37.1749 27.5987 36.7852L27.791 38.7097H18.1813ZM11.0845 32.9032C11.7961 32.9032 12.3748 33.482 12.3748 34.1936C12.3748 34.9052 11.7961 35.4839 11.0845 35.4839C10.3729 35.4839 9.79419 34.9052 9.79419 34.1936C9.79419 33.482 10.3729 32.9032 11.0845 32.9032ZM29.0877 38.7097L28.5006 32.8387L28.1884 32.8697C27.9413 32.4142 27.5626 32.0336 27.0774 31.791L24.6329 30.5691V25.8413L28.4858 27.1258C30.5316 27.8078 32.0226 29.5529 32.3774 31.68L33.5484 38.7097H29.0877Z" fill="white"/>
<path d="M9.43419 17.3832C9.76323 18.5155 10.371 19.5535 11.2277 20.4103L13.7432 22.9264C14.3523 23.5355 15.1626 23.871 16.0245 23.871H19.0477C19.9097 23.871 20.72 23.5355 21.329 22.9264L23.8445 20.4103C24.7013 19.5535 25.3084 18.5148 25.6381 17.3832C27.2458 17.2013 28.5039 15.849 28.5039 14.1935C28.5039 13.1348 27.9839 12.2013 27.1935 11.6129H27.2135V9.67741C27.2135 4.34129 22.8723 0 17.5361 0C12.2 0 7.85871 4.34129 7.85871 9.67741V11.6129H7.87871C7.08839 12.2013 6.56839 13.1348 6.56839 14.1935C6.56839 15.849 7.82645 17.2013 9.43419 17.3832ZM24.6329 15.3922C24.6329 16.9432 24.0284 18.4013 22.9323 19.4981L20.4168 22.0142C20.051 22.3793 19.5652 22.5806 19.0477 22.5806H16.0245C15.5071 22.5806 15.0206 22.3793 14.6555 22.0142L12.14 19.4981C11.0439 18.4013 10.4394 16.9432 10.4394 15.3922V12.2581H15.2103C16.7187 12.2581 18.1826 11.8542 19.4716 11.0852C20.7606 11.8542 22.2252 12.2581 23.7329 12.2581H24.6329V15.3922V15.3922ZM27.2135 14.1935C27.2135 15.0445 26.6574 15.7613 25.8929 16.0193C25.911 15.8122 25.9232 15.6032 25.9232 15.3922V12.3768C26.6723 12.6439 27.2135 13.3535 27.2135 14.1935ZM9.14903 9.67741C9.14903 5.0529 12.9116 1.29032 17.5361 1.29032C22.1606 1.29032 25.9232 5.0529 25.9232 9.67741V11.0329C25.7148 10.9903 25.4987 10.9677 25.2781 10.9677H23.7329C22.3387 10.9677 20.989 10.5593 19.829 9.7858L19.4716 9.54709L19.1135 9.7858C17.9535 10.5593 16.6045 10.9677 15.2103 10.9677H9.79419C9.57355 10.9677 9.35742 10.9903 9.14903 11.0329V9.67741ZM9.14903 12.3768V15.3922C9.14903 15.6032 9.16129 15.8122 9.17936 16.02C8.41484 15.7613 7.85871 15.0445 7.85871 14.1935C7.85871 13.3535 8.4 12.6439 9.14903 12.3768Z" fill="white"/>
</svg>
