<svg width="40" height="40" viewBox="0 0 40 40" fill="none" xmlns="http://www.w3.org/2000/svg">
<path d="M36.6667 10.6667H3.33335C2.96519 10.6667 2.66669 10.9652 2.66669 11.3334V28.6667C2.66669 29.0349 2.96519 29.3334 3.33335 29.3334H7.71002C8.28844 32.6106 7.9781 35.9828 6.81135 39.0994C6.6821 39.4442 6.85685 39.8284 7.2016 39.9577C7.27635 39.9857 7.35552 40.0001 7.43535 40.0001H32.5647C32.9329 39.9999 33.2313 39.7013 33.2311 39.3332C33.2311 39.2533 33.2167 39.1742 33.1887 39.0994C32.0219 35.9828 31.7116 32.6106 32.29 29.3334H36.6667C37.0349 29.3334 37.3334 29.0349 37.3334 28.6667V11.3334C37.3334 10.9652 37.0349 10.6667 36.6667 10.6667ZM8.37335 38.6667C9.34119 35.6546 9.57885 32.4555 9.06669 29.3334H30.9334C30.4212 32.4555 30.6589 35.6546 31.6267 38.6667H8.37335ZM36 28.0001H32.5514L34.5514 18.8081L33.248 18.5254L31.1867 28.0001H8.81335L6.75402 18.5254L5.45069 18.8081L7.45069 28.0001H4.00002V12.0001H19.3334V16.3101L18.6667 16.7547V14.0121C18.6667 13.6439 18.3682 13.3454 18 13.3454C16.1147 13.3399 14.3056 14.0894 12.9767 15.4267C10.6358 17.7537 9.32377 20.9207 9.33335 24.2214C9.32785 25.1704 9.8776 26.0351 10.7394 26.4327C11.0655 26.5863 11.4215 26.6662 11.782 26.6667C12.3519 26.6655 12.9033 26.4637 13.3394 26.0967L13.8474 25.6741C14.1021 25.4613 14.4234 25.3447 14.7554 25.3447H15.9147C17.4333 25.3429 18.6641 24.1127 18.6667 22.5941V18.3567L20 17.4667L21.3334 18.3554V22.5801C21.3344 24.0997 22.5657 25.3316 24.0854 25.3334H25.2447C25.5764 25.3335 25.8977 25.4498 26.1527 25.6621L26.6607 26.0847C27.097 26.4517 27.6485 26.6536 28.2187 26.6547C28.5787 26.6542 28.9342 26.5745 29.26 26.4214C30.1221 26.0233 30.6721 25.1582 30.6667 24.2087C30.6758 20.9082 29.3638 17.7413 27.0234 15.4141C25.6941 14.0773 23.8852 13.3281 22 13.3334C21.6319 13.3334 21.3334 13.6319 21.3334 14.0001V16.7547L20.6667 16.3101V12.0001H36V28.0001ZM17.3334 14.7161V22.5941C17.3319 23.3768 16.6975 24.011 15.9147 24.0121H14.7554C14.1113 24.0123 13.4877 24.238 12.9927 24.6501L12.4854 25.0727C12.0151 25.4649 11.316 25.4015 10.9239 24.9312C10.7577 24.732 10.6667 24.4808 10.6667 24.2214C10.6582 21.2746 11.8295 18.447 13.9194 16.3694C14.8362 15.4461 16.0404 14.8629 17.3334 14.7161ZM22.6667 22.5814V14.7047C23.9594 14.8515 25.1634 15.4342 26.0807 16.3567C28.1702 18.4346 29.3414 21.262 29.3334 24.2087C29.3336 24.8211 28.8375 25.3177 28.2252 25.3179C27.9655 25.318 27.7141 25.227 27.5147 25.0607L27.0067 24.6374C26.5115 24.2262 25.8884 24.0007 25.2447 24.0001H24.0854C23.3022 23.9993 22.6674 23.3646 22.6667 22.5814Z" fill="white"/>
<path d="M33.8093 4.66667H25.3333V0.666667C25.3333 0.2985 25.0348 0 24.6667 0H15.3333C14.9652 0 14.6667 0.2985 14.6667 0.666667V4.66667H6.19067C2.77375 4.67183 0.00516667 7.44042 0 10.8573V14H1.33333V10.8573C1.3385 8.17683 3.51017 6.00517 6.19067 6H15.3333C15.7015 6 16 5.7015 16 5.33333V1.33333H24V5.33333C24 5.7015 24.2985 6 24.6667 6H33.8093C36.4898 6.00517 38.6615 8.17683 38.6667 10.8573V14H40V10.8573C39.9948 7.44042 37.2263 4.67183 33.8093 4.66667Z" fill="white"/>
<path d="M15.5287 18.1953L14.3907 19.3333H12.6667V20.6666H14V22H15.3334V20.276L16.4714 19.138L15.5287 18.1953Z" fill="white"/>
<path d="M25.6094 19.3333L24.4714 18.1953L23.5287 19.138L24.6667 20.276V22H26V20.6666H27.3334V19.3333H25.6094Z" fill="white"/>
</svg>
