<svg width="40" height="37" viewBox="0 0 40 37" fill="none" xmlns="http://www.w3.org/2000/svg">
<path d="M26.8463 12.0493C26.631 12.2038 26.3763 12.2854 26.1099 12.2854C25.4121 12.2854 24.8445 11.7178 24.8445 11.0201C24.8445 10.8177 24.8906 10.6247 24.9814 10.4465C25.1748 10.0673 25.0289 9.60311 24.6535 9.40256C23.2314 8.64311 21.6222 8.2417 20.0001 8.2417C14.5457 8.2417 10.1082 12.6792 10.1082 18.1337C10.1082 23.5881 14.5455 28.0256 20 28.0256C25.4546 28.0256 29.892 23.5881 29.892 18.1337C29.892 15.9815 29.2127 13.9354 27.9275 12.2162C27.6728 11.8753 27.1919 11.8012 26.8463 12.0493V12.0493ZM20 26.4631C15.4071 26.4631 11.6706 22.7265 11.6706 18.1337C11.6706 13.5408 15.4071 9.8042 20 9.8042C21.1475 9.8042 22.2867 10.0424 23.3309 10.4972C23.2985 10.6693 23.282 10.8446 23.282 11.0201C23.282 12.5794 24.5506 13.8479 26.1099 13.8479C26.433 13.8479 26.7485 13.794 27.0466 13.6894C27.8879 15.0174 28.3295 16.5409 28.3295 18.1337C28.3295 22.7265 24.5929 26.4631 20 26.4631Z" fill="white"/>
<path d="M24.2821 15.7651H22.3685V13.8516C22.3685 13.4202 22.0187 13.0703 21.5873 13.0703H18.4127C17.9813 13.0703 17.6314 13.4202 17.6314 13.8516V15.7651H15.7179C15.2865 15.7651 14.9367 16.1149 14.9367 16.5463V19.7209C14.9367 20.1523 15.2865 20.5022 15.7179 20.5022H17.6314V22.4157C17.6314 22.8471 17.9813 23.197 18.4127 23.197H21.5873C22.0187 23.197 22.3685 22.8471 22.3685 22.4157V20.5022H24.2821C24.7135 20.5022 25.0633 20.1523 25.0633 19.7209V16.5463C25.0633 16.1149 24.7135 15.7651 24.2821 15.7651V15.7651ZM23.5008 18.9397H21.5873C21.1559 18.9397 20.806 19.2895 20.806 19.7209V21.6345H19.1939V19.7209C19.1939 19.2895 18.8441 18.9397 18.4127 18.9397H16.4992V17.3276H18.4127C18.8441 17.3276 19.1939 16.9777 19.1939 16.5463V14.6328H20.806V16.5463C20.806 16.9777 21.1559 17.3276 21.5873 17.3276H23.5008V18.9397Z" fill="white"/>
<path d="M39.8649 17.6946C39.775 17.5623 37.6214 14.4166 34.1155 11.2263C32.0457 9.34297 29.9341 7.83961 27.8391 6.75844C25.1844 5.38813 22.547 4.69336 20 4.69336C17.4531 4.69336 14.8157 5.3882 12.1609 6.75844C10.066 7.83969 7.95426 9.34297 5.88449 11.2263C2.37855 14.4166 0.225117 17.5623 0.135117 17.6946C-0.045039 17.9597 -0.045039 18.3079 0.135117 18.5729C0.225039 18.7052 2.37855 21.8509 5.88449 25.0412C7.95426 26.9245 10.0659 28.4279 12.1609 29.5091C14.8156 30.8793 17.453 31.5741 20 31.5741C22.5471 31.5741 25.1844 30.8793 27.8392 29.5091C29.9341 28.4278 32.0458 26.9245 34.1156 25.0412C37.6215 21.8509 39.775 18.7052 39.865 18.5729C40.045 18.3078 40.045 17.9596 39.8649 17.6946ZM33.0389 23.9083C29.9733 26.6927 25.2228 30.0116 20 30.0116C14.7773 30.0116 10.0268 26.6927 6.96121 23.9083C4.33105 21.5195 2.45379 19.1011 1.74223 18.1337C2.45394 17.1661 4.33137 14.7478 6.96121 12.3592C10.0268 9.57484 14.7773 6.25586 20 6.25586C25.2228 6.25586 29.9733 9.57484 33.0389 12.3592C35.6687 14.7478 37.5461 17.1661 38.2578 18.1337C37.5461 19.1013 35.6687 21.5197 33.0389 23.9083Z" fill="white"/>
<path d="M20 2.96195C20.4314 2.96195 20.7813 2.61211 20.7813 2.1807V0.78125C20.7813 0.349844 20.4314 0 20 0C19.5686 0 19.2188 0.349844 19.2188 0.78125V2.18062C19.2188 2.61211 19.5685 2.96195 20 2.96195V2.96195Z" fill="white"/>
<path d="M29.3568 6.05635C29.5568 6.05635 29.7567 5.98002 29.9092 5.82752L30.8987 4.83807C31.2038 4.53299 31.2038 4.0383 30.8987 3.73314C30.5935 3.42814 30.099 3.42814 29.7938 3.73314L28.8043 4.7226C28.4992 5.02768 28.4992 5.52236 28.8043 5.82752C28.957 5.98002 29.1569 6.05635 29.3568 6.05635Z" fill="white"/>
<path d="M10.0907 5.82752C10.2433 5.98002 10.4432 6.05635 10.6432 6.05635C10.8431 6.05635 11.043 5.98002 11.1956 5.82752C11.5007 5.52244 11.5007 5.02775 11.1956 4.7226L10.2061 3.73314C9.90098 3.42814 9.40645 3.42814 9.10121 3.73314C8.79614 4.03822 8.79614 4.53291 9.10121 4.83807L10.0907 5.82752Z" fill="white"/>
<path d="M20 33.3054C19.5686 33.3054 19.2188 33.6553 19.2188 34.0867V35.486C19.2188 35.9174 19.5686 36.2673 20 36.2673C20.4314 36.2673 20.7813 35.9174 20.7813 35.486V34.0867C20.7813 33.6553 20.4314 33.3054 20 33.3054Z" fill="white"/>
<path d="M10.0907 30.4397L9.10128 31.4291C8.7962 31.7342 8.7962 32.2289 9.10128 32.5341C9.25385 32.6866 9.45378 32.7629 9.6537 32.7629C9.85362 32.7629 10.0535 32.6866 10.2061 32.5341L11.1956 31.5446C11.5006 31.2395 11.5006 30.7448 11.1956 30.4397C10.8904 30.1347 10.3959 30.1347 10.0907 30.4397V30.4397Z" fill="white"/>
<path d="M29.9093 30.4397C29.6042 30.1347 29.1096 30.1347 28.8044 30.4397C28.4993 30.7448 28.4993 31.2395 28.8044 31.5446L29.7939 32.5341C29.9464 32.6866 30.1464 32.7629 30.3463 32.7629C30.5462 32.7629 30.7461 32.6866 30.8987 32.5341C31.2038 32.229 31.2038 31.7343 30.8987 31.4291L29.9093 30.4397Z" fill="white"/>
</svg>
