<svg width="40" height="40" viewBox="0 0 40 40" fill="none" xmlns="http://www.w3.org/2000/svg">
<path d="M17.3829 35.3125C10.3828 35.3125 4.68762 29.6174 4.68762 22.6172C4.68762 20.9074 5.02184 19.2484 5.68106 17.6859C5.80692 17.3877 6.15051 17.2481 6.44872 17.3738C6.74684 17.4996 6.88661 17.8434 6.76083 18.1414C6.16278 19.5589 5.8595 21.0648 5.8595 22.6172C5.8595 28.9713 11.0289 34.1406 17.3829 34.1406C23.7371 34.1406 28.9064 28.9713 28.9064 22.6172C28.9064 16.2631 23.737 11.0938 17.3829 11.0938C13.6961 11.0938 10.2032 12.8797 8.03934 15.8712C7.84965 16.1334 7.4834 16.1923 7.22114 16.0027C6.95895 15.813 6.90012 15.4467 7.08973 15.1845C9.47333 11.8892 13.3212 9.92188 17.3829 9.92188C24.3832 9.92188 30.0782 15.617 30.0782 22.6172C30.0782 29.6174 24.3832 35.3125 17.3829 35.3125V35.3125Z" fill="white"/>
<path d="M17.3843 40C16.5969 40 15.8507 39.6927 15.2765 39.1307C14.7882 38.6525 14.47 38.0223 14.3699 37.3537C12.4808 36.9706 10.7122 36.2384 9.10075 35.1723C8.57091 35.5805 7.92513 35.8016 7.24536 35.8016C6.45607 35.8016 5.70755 35.5007 5.13778 34.9545C4.55232 34.3932 4.22513 33.6298 4.21646 32.8045C4.20927 32.1209 4.43005 31.4499 4.83239 30.9063C3.76528 29.2952 3.03208 27.5271 2.64802 25.6384C1.98482 25.5523 1.37208 25.2523 0.891925 24.7721C0.3338 24.2139 0.0173159 23.4718 0.000675269 22.6825C-0.0164341 21.8716 0.292081 21.1003 0.869425 20.5106C1.34763 20.0223 1.97778 19.7042 2.6463 19.6041C3.02943 17.7149 3.76161 15.9464 4.82771 14.335C4.4195 13.8052 4.19841 13.1594 4.19841 12.4796C4.19841 11.6903 4.49919 10.9419 5.04544 10.372C5.60677 9.78656 6.37028 9.45938 7.19552 9.4507C7.87872 9.43992 8.55013 9.6643 9.0938 10.0666C10.7048 8.99953 12.4729 8.26633 14.3616 7.88227C14.4476 7.21906 14.7476 6.60641 15.2278 6.12617C15.7859 5.56813 16.5279 5.25164 17.3173 5.23492C18.1291 5.21719 18.8997 5.52633 19.4893 6.10367C19.9776 6.5818 20.2958 7.21203 20.3958 7.88055C22.1865 8.24414 23.8782 8.92602 25.4303 9.91055C25.4551 9.92625 25.5258 9.9682 25.6849 10.0471C25.6928 10.0412 25.7005 10.0354 25.7084 10.0295C25.7854 9.9725 25.8124 9.87508 25.7757 9.78695C25.7273 9.67102 25.6809 9.55055 25.6381 9.42922C25.3704 8.67398 25.2345 7.88 25.2345 7.07031C25.2345 5.18172 25.9699 3.40625 27.3053 2.07086C28.6408 0.735469 30.4162 0 32.3048 0C34.1934 0 35.9689 0.735469 37.3043 2.07094C37.4438 2.21039 37.5796 2.35805 37.7077 2.50961C37.9166 2.75672 37.8855 3.12648 37.6383 3.33531C37.3911 3.54414 37.0215 3.51313 36.8126 3.26594C36.7057 3.13938 36.5923 3.01609 36.4758 2.89961C35.3616 1.78547 33.8804 1.17188 32.3048 1.17188C30.7293 1.17188 29.248 1.78547 28.134 2.89953C27.02 4.01352 26.4064 5.49477 26.4064 7.07031C26.4064 7.74625 26.5197 8.40852 26.7431 9.03859C26.7789 9.14 26.8172 9.23984 26.8575 9.33625C27.1015 9.92195 26.9156 10.5944 26.4058 10.9716C26.3787 10.9917 26.3521 11.0126 26.3258 11.0344C26.0377 11.2729 25.6306 11.3213 25.2887 11.1577C25.0695 11.0527 24.9108 10.9687 24.8033 10.9007C23.2519 9.91656 21.5501 9.2607 19.7449 8.95094C19.4636 8.90273 19.2581 8.65883 19.2581 8.37344V8.3343C19.2581 7.81508 19.0436 7.30727 18.6697 6.94117C18.307 6.58602 17.8338 6.39875 17.3423 6.40664C16.8566 6.41695 16.4 6.61164 16.0567 6.955C15.7028 7.30875 15.5079 7.77977 15.5079 8.28125V8.37344C15.5079 8.65875 15.3024 8.90266 15.0211 8.95094C12.9808 9.30109 11.0861 10.0861 9.38974 11.2841C9.15646 11.4488 8.83841 11.4215 8.63685 11.2193L8.60896 11.1913C8.24232 10.8247 7.73411 10.6182 7.20802 10.6227C6.70052 10.628 6.23302 10.8271 5.89153 11.1833C5.55552 11.5337 5.37044 11.9943 5.37044 12.4798C5.37044 12.9808 5.5656 13.4518 5.91997 13.8063L5.98552 13.8718C6.18724 14.0735 6.21435 14.3912 6.04982 14.6241C4.85185 16.3205 4.06685 18.2151 3.71669 20.2555C3.66841 20.5368 3.42458 20.7423 3.13919 20.7423H3.10005C2.58083 20.7423 2.07302 20.9568 1.70693 21.3308C1.35185 21.6934 1.162 22.1648 1.17247 22.658C1.18271 23.1438 1.37739 23.6003 1.72075 23.9437C2.0745 24.2973 2.54552 24.4922 3.047 24.4922H3.13919C3.42458 24.4922 3.66841 24.6977 3.71669 24.979C4.06685 27.0194 4.85185 28.9141 6.04982 30.6105C6.21435 30.8434 6.18716 31.1611 5.98552 31.3628L5.95755 31.3908C5.59036 31.758 5.38294 32.2687 5.38841 32.7922C5.39372 33.2997 5.59286 33.7671 5.94896 34.1086C6.29942 34.4446 6.75989 34.6297 7.24552 34.6297C7.74646 34.6297 8.21747 34.4345 8.57193 34.0802L8.63747 34.0146C8.83919 33.813 9.15685 33.7857 9.38982 33.9504C11.0861 35.1484 12.9808 35.9334 15.0212 36.2835C15.3025 36.3317 15.508 36.5756 15.508 36.861V36.9002C15.508 37.4194 15.7226 37.9272 16.0965 38.2934C16.4591 38.6484 16.9321 38.8376 17.4237 38.8278C17.9094 38.8175 18.366 38.6228 18.7093 38.2795C19.0632 37.9257 19.258 37.4546 19.258 36.9531V36.8609C19.258 36.5756 19.4636 36.3317 19.7448 36.2834C21.7852 35.9333 23.6799 35.1483 25.3762 33.9503C25.6088 33.7859 25.9261 33.8127 26.1279 34.014L26.1559 34.0419C26.5237 34.4098 27.037 34.6192 27.5579 34.6117C28.0654 34.6064 28.5329 34.4073 28.8743 34.0512C29.2104 33.7007 29.3954 33.2402 29.3954 32.7545C29.3954 32.2536 29.2003 31.7827 28.846 31.4283L28.7806 31.3629C28.5786 31.1612 28.5514 30.8434 28.7161 30.6103C29.9141 28.9139 30.6991 27.0192 31.0493 24.9788C31.0975 24.6975 31.3414 24.492 31.6268 24.492H31.6659C32.1851 24.492 32.6929 24.2776 33.059 23.9036C33.4141 23.5409 33.604 23.0696 33.5936 22.5764C33.5833 22.0907 33.3886 21.6341 33.0452 21.2907C32.6914 20.937 32.2203 20.7421 31.7189 20.7421H31.6267C31.3414 20.7421 31.0976 20.5366 31.0492 20.2554C30.7152 18.3098 29.984 16.4934 28.8758 14.8566C28.8409 14.804 28.813 14.75 28.7876 14.687C28.6526 14.352 28.7163 13.9696 28.9536 13.6891C29.0287 13.6002 29.0955 13.5044 29.1523 13.4041C29.4651 12.8523 30.1058 12.5834 30.7106 12.7504C31.2301 12.8959 31.7641 12.9688 32.3047 12.9688C33.8803 12.9688 35.3615 12.3552 36.4755 11.2413C37.5897 10.1271 38.2033 8.64586 38.2033 7.07031C38.2033 6.5232 38.1285 5.98156 37.9811 5.46063C37.8929 5.1493 38.074 4.82539 38.3854 4.73727C38.6968 4.64898 39.0206 4.83023 39.1087 5.14156C39.2855 5.76641 39.3751 6.41531 39.3751 7.07031C39.3751 8.95891 38.6397 10.7344 37.3043 12.0698C35.9689 13.4052 34.1934 14.1406 32.3048 14.1406C31.6572 14.1406 31.0168 14.0531 30.4014 13.8806C30.3129 13.8563 30.2194 13.898 30.1719 13.9817C30.1025 14.1044 30.0238 14.223 29.9372 14.3355C31.001 15.9423 31.734 17.7104 32.1177 19.5959C32.7808 19.682 33.3936 19.982 33.8738 20.4622C34.432 21.0205 34.7484 21.7626 34.7651 22.5518C34.7822 23.3627 34.4736 24.134 33.8963 24.7237C33.4182 25.212 32.788 25.5301 32.1194 25.6302C31.7364 27.5193 31.0042 29.2878 29.9379 30.8994C30.3463 31.4292 30.5673 32.075 30.5673 32.7547C30.5673 33.5441 30.2665 34.2925 29.7203 34.8623C29.1589 35.4478 28.3954 35.7751 27.5701 35.7837C27.5594 35.7838 27.5486 35.7838 27.5379 35.7838C26.8654 35.7838 26.2072 35.5637 25.672 35.1677C24.0609 36.2348 22.293 36.968 20.4042 37.3521C20.3181 38.0152 20.0181 38.628 19.5379 39.1082C18.9797 39.6663 18.2376 39.9827 17.4483 39.9994C17.427 39.9998 17.4056 40 17.3843 40V40Z" fill="white"/>
<path d="M22.6173 29.6094C20.3557 29.6094 18.5157 27.7694 18.5157 25.5078C18.5157 23.2463 20.3557 21.4062 22.6173 21.4062C24.8789 21.4062 26.7189 23.2463 26.7189 25.5078C26.7189 27.7694 24.8789 29.6094 22.6173 29.6094ZM22.6173 22.5781C21.0018 22.5781 19.6876 23.8923 19.6876 25.5078C19.6876 27.1233 21.0018 28.4375 22.6173 28.4375C24.2328 28.4375 25.547 27.1233 25.547 25.5078C25.547 23.8923 24.2328 22.5781 22.6173 22.5781Z" fill="white"/>
<path d="M14.7657 19.9219C13.4734 19.9219 12.422 18.8705 12.422 17.5781C12.422 16.2858 13.4734 15.2344 14.7657 15.2344C16.0581 15.2344 17.1095 16.2858 17.1095 17.5781C17.1095 18.8705 16.0581 19.9219 14.7657 19.9219ZM14.7657 16.4062C14.1196 16.4062 13.5939 16.932 13.5939 17.5781C13.5939 18.2243 14.1196 18.75 14.7657 18.75C15.4119 18.75 15.9376 18.2243 15.9376 17.5781C15.9376 16.932 15.4119 16.4062 14.7657 16.4062Z" fill="white"/>
<path d="M15.0001 24.2969C14.5693 24.2969 14.2189 23.9464 14.2189 23.5156C14.2189 23.0848 14.5693 22.7344 15.0001 22.7344C15.4309 22.7344 15.7814 23.0848 15.7814 23.5156C15.7814 23.9464 15.4309 24.2969 15.0001 24.2969Z" fill="white"/>
<path d="M22.0314 18.0469C21.6006 18.0469 21.2501 17.6964 21.2501 17.2656C21.2501 16.8348 21.6006 16.4844 22.0314 16.4844C22.4622 16.4844 22.8126 16.8348 22.8126 17.2656C22.8126 17.6964 22.4622 18.0469 22.0314 18.0469Z" fill="white"/>
<path d="M22.0314 25.8594C21.6006 25.8594 21.2501 25.5089 21.2501 25.0781C21.2501 24.6473 21.6006 24.2969 22.0314 24.2969C22.4622 24.2969 22.8126 24.6473 22.8126 25.0781C22.8126 25.5089 22.4622 25.8594 22.0314 25.8594Z" fill="white"/>
<path d="M9.17981 24.375C8.21051 24.375 7.422 23.5864 7.422 22.6172C7.422 21.648 8.21051 20.8594 9.17981 20.8594C10.1491 20.8594 10.9376 21.648 10.9376 22.6172C10.9376 23.5864 10.1491 24.375 9.17981 24.375ZM9.17981 22.0312C8.85668 22.0312 8.59387 22.2941 8.59387 22.6172C8.59387 22.9403 8.85668 23.2031 9.17981 23.2031C9.50293 23.2031 9.76575 22.9403 9.76575 22.6172C9.76575 22.2941 9.50293 22.0312 9.17981 22.0312Z" fill="white"/>
<path d="M13.9455 31.7969C12.5455 31.7969 11.4064 30.6579 11.4064 29.2578C11.4064 27.8577 12.5455 26.7188 13.9455 26.7188C15.3455 26.7188 16.4845 27.8577 16.4845 29.2578C16.4845 30.6579 15.3455 31.7969 13.9455 31.7969ZM13.9455 27.8906C13.1916 27.8906 12.5783 28.504 12.5783 29.2578C12.5783 30.0116 13.1916 30.625 13.9455 30.625C14.6993 30.625 15.3127 30.0116 15.3127 29.2578C15.3127 28.504 14.6994 27.8906 13.9455 27.8906Z" fill="white"/>
<path d="M31.0939 6.67969C30.1247 6.67969 29.3361 5.89109 29.3361 4.92188C29.3361 3.95266 30.1247 3.16406 31.0939 3.16406C32.0631 3.16406 32.8517 3.95266 32.8517 4.92188C32.8517 5.89109 32.0631 6.67969 31.0939 6.67969ZM31.0939 4.33594C30.7708 4.33594 30.5079 4.59875 30.5079 4.92188C30.5079 5.245 30.7708 5.50781 31.0939 5.50781C31.417 5.50781 31.6798 5.245 31.6798 4.92188C31.6798 4.59875 31.417 4.33594 31.0939 4.33594Z" fill="white"/>
<path d="M32.6564 11.3672C31.6872 11.3672 30.8986 10.5786 30.8986 9.60938C30.8986 8.64016 31.6872 7.85156 32.6564 7.85156C33.6256 7.85156 34.4142 8.64016 34.4142 9.60938C34.4142 10.5786 33.6256 11.3672 32.6564 11.3672ZM32.6564 9.02344C32.3333 9.02344 32.0704 9.28625 32.0704 9.60938C32.0704 9.9325 32.3333 10.1953 32.6564 10.1953C32.9795 10.1953 33.2423 9.9325 33.2423 9.60938C33.2423 9.28625 32.9795 9.02344 32.6564 9.02344Z" fill="white"/>
</svg>
