<svg width="40" height="39" viewBox="0 0 40 39" fill="none" xmlns="http://www.w3.org/2000/svg">
<path d="M17.1371 9.7942C16.8767 10.0546 16.4544 10.0546 16.1939 9.7942C16.1312 9.73083 9.80222 3.55324 1.67284 8.55681C1.36155 8.7262 0.972153 8.62261 0.786182 8.32094C0.600211 8.01927 0.682594 7.62483 0.973768 7.42282C3.10474 6.04666 5.58074 5.29963 8.11724 5.26757C11.4568 5.34168 14.6583 6.61452 17.1371 8.85365C17.3958 9.11383 17.3958 9.53402 17.1371 9.7942V9.7942Z" fill="white"/>
<path d="M14.3662 2.68853C14.2902 2.6505 6.73445 -1.04163 1.79492 3.89722C1.53318 4.15002 1.11714 4.1464 0.859835 3.8891C0.60253 3.63179 0.598914 3.21575 0.851709 2.95401C2.83019 0.994783 5.52328 -0.0710259 8.3067 0.00364176C10.6042 0.0386723 12.8698 0.54639 14.9626 1.49517C15.1777 1.60058 15.3197 1.81325 15.3348 2.05233C15.3498 2.29141 15.2355 2.52019 15.0352 2.6517C14.835 2.78322 14.5797 2.79728 14.3662 2.68853V2.68853Z" fill="white"/>
<path d="M39.0278 7.42003C39.319 7.62205 39.4014 8.01648 39.2154 8.31815C39.0295 8.61982 38.6401 8.72341 38.3288 8.55402C33.7886 5.54215 27.7718 6.05511 23.807 9.79207C23.5451 10.0447 23.129 10.0408 22.8719 9.7833C22.6148 9.52581 22.6115 9.10975 22.8645 8.8482C25.3431 6.60876 28.5447 5.33587 31.8844 5.26212C34.4211 5.29497 36.8971 6.04293 39.0278 7.42003Z" fill="white"/>
<path d="M25.0391 1.49517C27.1317 0.546281 29.3974 0.0385581 31.6949 0.00364176C34.4783 -0.0710259 37.1714 0.994783 39.1499 2.95401C39.4027 3.21575 39.3991 3.63179 39.1418 3.8891C38.8845 4.1464 38.4684 4.15002 38.2067 3.89722C33.2798 -1.02895 25.7114 2.65184 25.6347 2.68853C25.3068 2.84309 24.9154 2.70743 24.7535 2.38305C24.5916 2.05867 24.7184 1.66435 25.0391 1.49517V1.49517Z" fill="white"/>
<path d="M18.6667 38.0056H10.6621C10.3362 38.0055 10.0581 37.77 10.0043 37.4486L9.52807 34.6036C9.4289 34.0074 9.13021 33.4624 8.68091 33.0581C5.03013 29.7895 4.9214 29.5701 4.85136 29.4293L0.314061 20.9684C-0.097189 20.2383 -0.10502 19.3482 0.293321 18.611C0.691661 17.8737 1.44044 17.3925 2.27653 17.3363L1.61281 16.1009C1.17301 15.3528 1.16533 14.4269 1.59266 13.6715C2.01999 12.9162 2.81753 12.4459 3.68535 12.4375C3.46626 11.7131 3.59919 10.928 4.0445 10.3162C4.48982 9.70436 5.19606 9.33651 5.95266 9.32233C6.81822 9.31367 7.61863 9.781 8.03654 10.539L8.11458 10.6624C8.54605 9.91552 9.34917 9.46191 10.2116 9.47799C11.074 9.49408 11.8597 9.97733 12.263 10.7398L15.8451 17.367L15.8784 14.8369C15.883 13.861 16.4812 12.9863 17.3889 12.6281C18.2966 12.2698 19.331 12.5002 20.0008 13.2099C20.6722 12.5037 21.705 12.2755 22.6114 12.6331C23.5179 12.9907 24.1167 13.8625 24.1252 14.8369L24.1585 17.367L27.7386 10.7371C28.1435 9.97624 28.9293 9.49484 29.7911 9.47973C30.6529 9.46463 31.455 9.91819 31.8864 10.6644L31.9371 10.5844C32.2535 9.9876 32.8093 9.55399 33.4652 9.39225C34.121 9.23052 34.8147 9.356 35.3724 9.73723C36.2267 10.3469 36.6042 11.4286 36.3149 12.4375C37.1818 12.4454 37.9789 12.9144 38.4068 13.6684C38.8347 14.4225 38.8286 15.3473 38.3908 16.0956L37.7237 17.3363C38.5602 17.3928 39.3092 17.8747 39.7073 18.6125C40.1054 19.3504 40.0969 20.2409 39.6849 20.9711L35.1596 29.412C35.0802 29.5701 34.9715 29.7875 31.3207 33.0581C30.8714 33.4624 30.5727 34.0074 30.4735 34.6036L29.9973 37.4486C29.9435 37.77 29.6654 38.0055 29.3395 38.0056H21.3349C20.9665 38.0056 20.6679 37.707 20.6679 37.3386C20.6679 35.5008 20.5711 25.1542 20.303 24.0495C20.2043 23.7213 20.1029 23.3731 20.0008 23.0283C19.9034 23.3618 19.8007 23.7007 19.708 24.0155C19.4225 25.1842 19.3337 35.2754 19.3337 37.3386C19.3337 37.707 19.0351 38.0056 18.6667 38.0056V38.0056ZM20.7399 20.6002C20.7672 20.8583 21.1975 22.3919 21.5891 23.6993C21.9126 25.0221 22.002 35.0586 22.002 36.6715H28.7746L29.1554 34.3849C29.3056 33.489 29.7552 32.6706 30.4308 32.0635C32.8509 29.8956 33.8662 28.9284 33.9749 28.7949L38.5109 20.3394C38.819 19.7874 38.6275 19.0902 38.0806 18.7731C37.6048 18.534 37.0252 18.6989 36.7465 19.1527L33.8475 24.5872C33.7352 24.7975 33.5193 24.9319 33.2811 24.9399C33.0428 24.9478 32.8184 24.8281 32.6924 24.6257C32.5664 24.4233 32.5579 24.1691 32.6701 23.9588C36.7652 16.2837 34.5866 20.3567 37.2221 15.4552C37.5241 14.9489 37.3935 14.2961 36.9199 13.945C36.6739 13.7868 36.3733 13.7374 36.0896 13.8086C35.8058 13.8797 35.5641 14.065 35.4217 14.3206C35.0388 15.0443 36.8472 11.557 31.3527 21.925C31.244 22.1406 31.0272 22.2806 30.7859 22.2911C30.5446 22.3015 30.3165 22.1807 30.1896 21.9752C30.0627 21.7697 30.0567 21.5117 30.174 21.3006C32.3486 17.1956 34.2531 13.5921 34.9248 12.3481C35.2213 11.8409 35.0931 11.1922 34.6259 10.8359C34.3731 10.6656 34.0588 10.6133 33.7645 10.6927C33.4702 10.772 33.2247 10.9751 33.0917 11.2494C31.3054 14.0651 32.5261 11.8958 27.896 20.6349C27.7234 20.9604 27.3197 21.0843 26.9942 20.9117C26.6687 20.7391 26.5448 20.3353 26.7174 20.0099C30.0953 13.6342 30.6923 12.4922 30.7757 12.3761C30.9939 11.8922 30.8535 11.3219 30.4355 10.9946C30.1877 10.828 29.8811 10.7736 29.5911 10.845C29.3011 10.9164 29.0547 11.1069 28.9126 11.3695L24.1098 20.262C23.9655 20.5296 23.6585 20.6657 23.3633 20.593C23.0681 20.5203 22.8594 20.2572 22.8558 19.9532L22.7891 14.8575C22.7861 14.5715 22.6703 14.2982 22.4669 14.0971C22.1585 13.7987 21.7007 13.7155 21.3069 13.8861C20.9132 14.0568 20.661 14.4478 20.6679 14.8769L20.7399 20.6002ZM19.3337 14.8769C19.3426 14.4464 19.0904 14.0533 18.6956 13.8818C18.3007 13.7102 17.8413 13.7942 17.5327 14.0944C17.3294 14.2953 17.2136 14.5684 17.2105 14.8542L17.1438 19.9505C17.1402 20.2545 16.9315 20.5176 16.6363 20.5903C16.3411 20.663 16.0341 20.5269 15.8898 20.2593L11.087 11.3762C10.9454 11.1124 10.6988 10.9209 10.4082 10.8491C10.1176 10.7773 9.81021 10.8319 9.56209 10.9993C9.14457 11.3268 9.00444 11.897 9.22256 12.3808C9.30594 12.4968 9.90295 13.6388 13.2809 20.0145C13.3926 20.2251 13.3834 20.4792 13.2569 20.6812C13.1304 20.8831 12.9057 21.0023 12.6675 20.9937C12.4294 20.9851 12.2139 20.8501 12.1022 20.6396C7.49222 11.9378 8.62955 13.969 6.88053 11.2088C6.73844 10.9506 6.4946 10.7638 6.20832 10.6938C5.92203 10.6238 5.61952 10.677 5.37433 10.8405C4.90714 11.1968 4.77894 11.8455 5.07549 12.3527C5.75054 13.6035 7.91513 17.6978 9.82624 21.3053C9.94355 21.5164 9.9376 21.7744 9.81067 21.9799C9.68375 22.1853 9.45567 22.3061 9.21439 22.2957C8.9731 22.2853 8.75629 22.1453 8.64756 21.9296C3.19106 11.6243 4.96542 15.047 4.58253 14.3252C4.43982 14.0706 4.19861 13.886 3.91557 13.8147C3.63254 13.7434 3.33263 13.7917 3.08633 13.9483C2.61037 14.301 2.4799 14.9574 2.78483 15.4652C5.35965 20.256 3.33514 16.4658 7.33413 23.9635C7.50765 24.2886 7.38475 24.6928 7.05964 24.8663C6.73452 25.0399 6.3303 24.917 6.15678 24.5918L3.25777 19.156C2.97627 18.706 2.39988 18.542 1.92366 18.7765C1.37776 19.0933 1.18587 19.7888 1.49208 20.3407L6.00803 28.7623C6.19413 28.9824 7.21873 29.9556 9.57209 32.0635C10.2477 32.6706 10.6974 33.489 10.8475 34.3849L11.2271 36.6715H17.9996C17.9996 35.1286 18.089 25.0208 18.4212 23.664C18.8041 22.3912 19.2344 20.857 19.2604 20.6255L19.3337 14.8755V14.8769Z" fill="white"/>
</svg>
