<svg id="Слой_1" data-name="Слой 1" xmlns="http://www.w3.org/2000/svg" viewBox="0 0 443.25 75.35"><defs><style>.cls-1,.cls-3{fill:#bd040a;}.cls-2{fill:#0c0a59;}.cls-2,.cls-3{fill-rule:evenodd;}</style></defs><title>лого</title><path class="cls-1" d="M110.53,54.08V47.76h16.34v15a20.73,20.73,0,0,1-6.9,4.06,25.15,25.15,0,0,1-9.16,1.75,20.52,20.52,0,0,1-10.27-2.47A15.67,15.67,0,0,1,94,59a22.81,22.81,0,0,1-2.2-10,21.63,21.63,0,0,1,2.46-10.43,16.54,16.54,0,0,1,7.2-7,19.34,19.34,0,0,1,9-1.87q7,0,10.92,2.93a13.26,13.26,0,0,1,5.06,8.11l-7.53,1.41a8,8,0,0,0-3-4.37,9,9,0,0,0-5.47-1.6,10.25,10.25,0,0,0-7.9,3.15q-2.94,3.15-2.94,9.35,0,6.69,3,10a9.92,9.92,0,0,0,7.79,3.34,13.14,13.14,0,0,0,4.78-.93,16.56,16.56,0,0,0,4.11-2.27V54.08Z" transform="translate(-9.59 -11.44)"/><path class="cls-1" d="M167.73,67.89h-8.25l-3.28-8.53h-15l-3.1,8.53h-8l14.62-37.55h8ZM153.77,53,148.59,39.1,143.52,53Z" transform="translate(-9.59 -11.44)"/><path class="cls-1" d="M176.31,67.89V36.69H165.17V30.34H195v6.35H183.89v31.2Z" transform="translate(-9.59 -11.44)"/><path class="cls-1" d="M200.11,67.89V30.65h7.58V61.56h18.85v6.33Z" transform="translate(-9.59 -11.44)"/><path class="cls-1" d="M231.72,67.89V30.34h7.58V67.89Z" transform="translate(-9.59 -11.44)"/><path class="cls-1" d="M246.6,67.89V30.34H254l15.37,25.08V30.34h7V67.89h-7.6L253.65,43.4V67.89Z" transform="translate(-9.59 -11.44)"/><path class="cls-1" d="M301.88,54.08V47.76h16.35v15a20.69,20.69,0,0,1-6.91,4.06,25.08,25.08,0,0,1-9.16,1.75,20.54,20.54,0,0,1-10.27-2.47A15.71,15.71,0,0,1,285.31,59a22.81,22.81,0,0,1-2.2-10,21.63,21.63,0,0,1,2.46-10.43,16.47,16.47,0,0,1,7.19-7,19.4,19.4,0,0,1,9-1.87q7,0,10.93,2.93a13.26,13.26,0,0,1,5.06,8.11l-7.53,1.41a8,8,0,0,0-3-4.37,9,9,0,0,0-5.47-1.6,10.28,10.28,0,0,0-7.9,3.15q-2.93,3.15-2.93,9.35,0,6.69,3,10a9.92,9.92,0,0,0,7.79,3.34,13.14,13.14,0,0,0,4.78-.93,16.74,16.74,0,0,0,4.11-2.27V54.08Z" transform="translate(-9.59 -11.44)"/><path class="cls-1" d="M324.35,57.88v-7.2h14.14v7.2Z" transform="translate(-9.59 -11.44)"/><path class="cls-1" d="M342.59,67.89V30.34h11.35L360.75,56l6.74-25.62h11.37V67.89h-7V38.33l-7.46,29.56h-7.3l-7.43-29.56V67.89Z" transform="translate(-9.59 -11.44)"/><path class="cls-1" d="M386.39,67.89V30.34h27.85v6.35H394V45h18.85v6.32H394V61.56h21v6.33Z" transform="translate(-9.59 -11.44)"/><path class="cls-1" d="M421.36,30.34h13.86a27,27,0,0,1,7.15.72A12.53,12.53,0,0,1,448,34.51a16.46,16.46,0,0,1,3.58,6.09,27.7,27.7,0,0,1,1.23,8.87,24.67,24.67,0,0,1-1.15,8,16.58,16.58,0,0,1-4,6.63,13.4,13.4,0,0,1-5.33,3,22.91,22.91,0,0,1-6.71.79H421.36Zm7.58,6.35V61.56h5.66a20.77,20.77,0,0,0,4.59-.35,7,7,0,0,0,3.06-1.57,8,8,0,0,0,2-3.62,24.65,24.65,0,0,0,.76-6.88,22.63,22.63,0,0,0-.76-6.69,8.59,8.59,0,0,0-2.16-3.63,7.23,7.23,0,0,0-3.51-1.77,34.13,34.13,0,0,0-6.22-.36Z" transform="translate(-9.59 -11.44)"/><path class="cls-2" d="M34.89,35.45a.52.52,0,0,0,.57-.46.29.29,0,0,0,0-.13c-.09-.6-.47-.92-1-1.43-1.61-1.52-3.25.18-2.24,1.81a7.62,7.62,0,0,0,4.64,2.91c4.39.89,9.87,1.12,11.62,3V55.72a38.18,38.18,0,0,1-4.87,1.33,18.76,18.76,0,0,1-9.54-1.77C30.23,53.6,28,50.7,25.73,47.89A25.08,25.08,0,0,1,21.65,33.2,19.49,19.49,0,0,1,27,20.38c3.14-3.19,6.55-6.17,14.15-6.73a18.88,18.88,0,0,1,11.61,2.68A6.11,6.11,0,0,1,55.58,21c.23,1.81.8,3.09,1.81,3.75.75.5,1.23.49,1.43-.13l3-10.68c.34-1-.76-1.19-1.45-1.11-4.79.4-9.81-.31-15.15-1-9-1.11-16.6-.06-24.61,4.31a20.16,20.16,0,0,0-9.15,9.73,21.14,21.14,0,0,0-.3,16.44c2.26,6,7,10.77,13.78,13.72,4.38,1.91,9,2.5,13.51,2.88,6.26.51,11.53-.8,17-1.74L63,55.38l-3.83-1q0-4.29,0-8.56c.18-3.35,1.31-5.49,3.18-6.7.13.29.26.58.38.87h1.59l-1.1-1.46,2.23-.85c-6.5,0-13,.16-19.52.08-7.21-.18-11.11-1.29-11-2.33Z" transform="translate(-9.59 -11.44)"/><path class="cls-2" d="M62.61,42.83v8.74c0,1.11.21,1.56.8,1.84l4.72,2.05c.54.25.54.56,0,.67l-14.77,2.8,0,1,9.34-1.67c2.78-.56,5.64-1.24,8.16-1.94.68-.18,1-.45-.17-.92-1.8-.77-3.7-1.7-5.51-2.47a1.7,1.7,0,0,1-1.07-1.88c.1-2.77.19-5.54.29-8.3l-1.74,0Z" transform="translate(-9.59 -11.44)"/><path class="cls-2" d="M42.44,60.29V61c-4.55.39-8.2.18-10.38-.94a40.14,40.14,0,0,0,10.38.21Z" transform="translate(-9.59 -11.44)"/><path class="cls-2" d="M42.18,55c-5.27-1-9.91-3-13.17-7,.22-.36.51-.84.74-1.2,2.35,4.43,6.91,6.8,12.43,8.21Z" transform="translate(-9.59 -11.44)"/><polygon class="cls-2" points="53.58 2.98 54.26 4.17 52.27 12.12 50.73 13.32 53.58 2.98"/><path class="cls-2" d="M52.23,18.91c-7.68-4-16.64-6.34-23.19,1.94a19.1,19.1,0,0,0-4,8.46c-.76,4.43-.09,7.17.64,10.47.62.42,1,.69,1.6,1.11a22.46,22.46,0,0,1-1.17-11.54,20.21,20.21,0,0,1,5.22-9.47c4.46-4.46,11.73-5.24,20.88-1Z" transform="translate(-9.59 -11.44)"/><path class="cls-3" d="M35.26,84.74c9.46.05,14.73,0,24.19,0,8.47-.23,2.56-2,1.29-2-7.32-.28-6.78-4.68-7-7.56-.29-10,0-19.47.36-29.51,0-1.5.49-2.08,1.93-2.22a52.81,52.81,0,0,1,9.41.23c2.52.52,3.63,1.68,4.11,3.23.36,1,.63,2.11,1,3.14s2,2.65,2.27,1.17q.8-4.38,1.57-8.76c.33-1.27-.55-2.25-1.76-1.55a6.52,6.52,0,0,1-3.46.54l-37.63-.5c-2.21-.16-4,.07-5.69-1.39a1.35,1.35,0,0,0-2.14,1.18,26.4,26.4,0,0,1-1.47,7.5c-.55,2,.75,3.06,2.36,1.41.67-1,.82-1.77,1.49-2.75,2.54-3.43,5.39-3.63,8.43-3.91l7.66.13c1.27,0,1.79.81,1.64,2.21,0,10.89-.29,21-.87,31.75-.25,3.33-1.78,4.92-4.49,5.42-1.5.2-2.69.27-4.27.57-2.23.54-.94,1.46,1.08,1.68Z" transform="translate(-9.59 -11.44)"/><path class="cls-3" d="M27.54,49.49c-.19.34.65.72.85.4.6-1.09.83-1.55,1.43-2.64.45-1,2-1.53,3.22-1.5l8.74.12c.15,0,.18-1,0-1-3,0-5.82,0-8.86,0-1.86,0-3,.19-4.18,2.14-.57,1.07-.69,1.42-1.21,2.5Z" transform="translate(-9.59 -11.44)"/><path class="cls-3" d="M59.16,45.84c2.14,0,4.35.06,6.49.06.49.45.76.74,1.25,1.19-2.08,0-4.07-.12-6.15-.12-.65,10.83-.13,22.14.19,33.09l12.22,6.73-38.8-.28-.6-1,36,.45-.3-.5-10.06-5c-.35-11.46-.86-22.85-.28-34.67Z" transform="translate(-9.59 -11.44)"/></svg>