<svg id="Слой_1" data-name="Слой 1" xmlns="http://www.w3.org/2000/svg" viewBox="0 0 983.04 167.12"><defs><style>.cls-1,.cls-3{fill:#bc1818;}.cls-2{fill:#fff;}.cls-2,.cls-3{fill-rule:evenodd;}</style></defs><title>лого gm для сайта</title><path class="cls-1" d="M223.85,190.54v-14h36.24v33.18q-5.28,5.12-15.31,9a55.57,55.57,0,0,1-20.31,3.89q-13.07,0-22.78-5.48a34.82,34.82,0,0,1-14.6-15.68,50.62,50.62,0,0,1-4.89-22.18,47.93,47.93,0,0,1,5.46-23.13,36.69,36.69,0,0,1,16-15.51q8-4.14,19.94-4.14,15.51,0,24.23,6.5a29.38,29.38,0,0,1,11.23,18l-16.71,3.13a17.63,17.63,0,0,0-6.62-9.69,20,20,0,0,0-12.13-3.55q-11,0-17.52,7t-6.51,20.73q0,14.83,6.59,22.25t17.27,7.41a29,29,0,0,0,10.6-2.07,36.3,36.3,0,0,0,9.12-5V190.54Z" transform="translate(0 -95.96)"/><path class="cls-1" d="M350.71,221.16H332.42l-7.27-18.91h-33.3L285,221.16H267.14l32.44-83.28h17.78Zm-31-32.95-11.48-30.9L297,188.21Z" transform="translate(0 -95.96)"/><path class="cls-1" d="M369.74,221.16V152H345V137.88h66.19V152H386.56v69.19Z" transform="translate(0 -95.96)"/><path class="cls-1" d="M422.52,221.16v-82.6h16.82v68.57h41.81v14Z" transform="translate(0 -95.96)"/><path class="cls-1" d="M492.63,221.16V137.88h16.82v83.28Z" transform="translate(0 -95.96)"/><path class="cls-1" d="M525.64,221.16V137.88H542l34.09,55.62V137.88h15.62v83.28H574.84l-33.58-54.31v54.31Z" transform="translate(0 -95.96)"/><path class="cls-1" d="M648.24,190.54v-14h36.25v33.18q-5.28,5.12-15.31,9a55.65,55.65,0,0,1-20.31,3.89q-13.07,0-22.79-5.48a34.88,34.88,0,0,1-14.6-15.68,50.76,50.76,0,0,1-4.88-22.18,48,48,0,0,1,5.45-23.13,36.77,36.77,0,0,1,16-15.51q8-4.14,19.94-4.14,15.51,0,24.23,6.5a29.41,29.41,0,0,1,11.22,18l-16.7,3.13a17.68,17.68,0,0,0-6.62-9.69A20,20,0,0,0,648,150.83q-11,0-17.53,7t-6.5,20.73q0,14.83,6.59,22.25t17.27,7.41a29,29,0,0,0,10.59-2.07,36.3,36.3,0,0,0,9.12-5V190.54Z" transform="translate(0 -95.96)"/><path class="cls-1" d="M698.07,199V183h31.36v16Z" transform="translate(0 -95.96)"/><path class="cls-1" d="M738.52,221.16V137.88h25.17l15.11,56.81,14.94-56.81H819v83.28H803.34V155.6l-16.53,65.56H770.62L754.14,155.6v65.56Z" transform="translate(0 -95.96)"/><path class="cls-1" d="M835.67,221.16V137.88h61.75V152H852.49v18.46H894.3v14H852.49v22.67H899v14Z" transform="translate(0 -95.96)"/><path class="cls-1" d="M913.22,137.88H944q10.41,0,15.86,1.59a27.8,27.8,0,0,1,12.55,7.67,36.32,36.32,0,0,1,8,13.49q2.71,8,2.72,19.69A54.85,54.85,0,0,1,980.49,198a36.86,36.86,0,0,1-8.92,14.72,29.6,29.6,0,0,1-11.82,6.64q-5.57,1.77-14.89,1.76H913.22ZM930,152v55.16h12.55a45.88,45.88,0,0,0,10.17-.79,15.59,15.59,0,0,0,6.79-3.47q2.7-2.44,4.4-8t1.71-15.25q0-9.66-1.71-14.83a18.92,18.92,0,0,0-4.77-8.07,16,16,0,0,0-7.78-3.92q-3.52-.8-13.81-.79Z" transform="translate(0 -95.96)"/><path class="cls-2" d="M56.1,149.2a1.15,1.15,0,0,0,1.28-1,.87.87,0,0,0,0-.28c-.21-1.33-1-2-2.24-3.17-3.57-3.38-7.2.39-5,4a16.82,16.82,0,0,0,10.29,6.45c9.73,2,21.89,2.48,25.78,6.73v32.24c-3.6,1-7.12,2.43-10.81,3-6.08.86-14.06-.79-21.15-3.93C45.78,189.46,40.75,183,35.79,176.8c-6.73-10.86-9.6-21.73-9-32.58.59-11.94,5.22-21.74,11.79-28.42,7-7.08,14.54-13.7,31.39-14.93,8.75-.63,17.46.82,25.75,5.94A13.51,13.51,0,0,1,102,117.12c.53,4,1.78,6.84,4,8.32,1.67,1.1,2.73,1.08,3.19-.3l6.53-23.67c.75-2.28-1.68-2.65-3.21-2.47-10.62.88-21.77-.67-33.6-2.13-20-2.46-36.81-.12-54.59,9.56C15.24,111,8.61,118.45,4,128c-5.6,11.69-4.92,25.15-.67,36.47,5,13.37,15.56,23.89,30.57,30.43,9.72,4.23,20,5.54,30,6.38,13.9,1.15,25.58-1.78,37.7-3.86l16.8-4-8.49-2.19q0-9.49,0-19c.39-7.43,2.91-12.17,7-14.86l.85,1.93h3.53l-2.45-3.23,5-1.9c-14.44.07-28.87.37-43.3.19-16-.4-24.64-2.86-24.45-5.18" transform="translate(0 -95.96)"/><path class="cls-2" d="M117.58,165.58V185c-.07,2.49.47,3.48,1.78,4.08l10.46,4.57c1.19.55,1.19,1.24,0,1.48L97,201.28c0,.79,0,1.56-.08,2.34l20.74-3.71c6.16-1.23,12.49-2.74,18.08-4.31,1.52-.39,2.15-1-.37-2-4-1.7-8.22-3.77-12.21-5.47-1.94-.82-2.38-2.11-2.38-4.18q.32-9.19.64-18.4l-3.86.07" transform="translate(0 -95.96)"/><path class="cls-2" d="M72.84,204.31v1.61c-10.08.87-18.19.39-23-2.08,7.73,1.36,15.39,1.1,23,.47" transform="translate(0 -95.96)"/><path class="cls-2" d="M72.27,192.56c-11.7-2.31-22-6.7-29.22-15.55.51-.79,1.14-1.85,1.65-2.65,5.21,9.84,15.33,15.09,27.57,18.21" transform="translate(0 -95.96)"/><polygon class="cls-2" points="118.82 6.62 120.34 9.24 115.93 26.88 112.51 29.55 118.82 6.62"/><path class="cls-2" d="M94.55,112.53c-17-8.9-36.9-14.07-51.42,4.3a42.49,42.49,0,0,0-8.84,18.77c-1.67,9.82-.18,15.89,1.42,23.21,1.39.94,2.17,1.53,3.57,2.47-4.24-12.19-3.46-22.39-2.61-25.6,1.73-6.46,4.69-14.11,11.58-21,9.9-9.9,26-11.62,46.31-2.15" transform="translate(0 -95.96)"/><path class="cls-3" d="M56.92,258.53c21,.1,32.68-.11,53.66,0,18.77-.51,5.67-4.35,2.85-4.45-16.23-.62-15-10.38-15.51-16.77-.64-22.26-.08-43.19.82-65.46,0-3.32,1.07-4.61,4.27-4.92a117.47,117.47,0,0,1,20.88.51c5.58,1.16,8,3.73,9.1,7.16.79,2.28,1.4,4.69,2.2,7,.9,2.45,4.51,5.87,5,2.6l3.48-19.44c.72-2.82-1.23-5-3.9-3.44-2.3,1.24-4.48,1.26-7.67,1.22l-83.47-1.12c-4.9-.34-8.8.15-12.62-3.09a3,3,0,0,0-4.75,2.63c-.16,5.91-1.46,11-3.25,16.63-1.23,4.41,1.66,6.78,5.23,3.12,1.48-2.18,1.82-3.91,3.3-6.09,5.64-7.61,12-8.06,18.7-8.68l17,.29c2.81.09,4,1.79,3.64,4.9.1,24.14-.65,46.49-1.93,70.42-.57,7.37-4,10.92-10,12-3.32.44-6,.6-9.48,1.27C49.6,256,52.46,258,57,258.53" transform="translate(0 -95.96)"/><path class="cls-3" d="M39.81,180.36c-.43.74,1.44,1.58,1.87.88,1.34-2.43,1.84-3.43,3.17-5.85,1-2.2,4.35-3.4,7.15-3.32l19.39.26c.32,0,.39-2.25,0-2.26-6.67-.06-12.92.06-19.67,0-4.11,0-6.57.43-9.25,4.75-1.28,2.38-1.54,3.17-2.68,5.54" transform="translate(0 -95.96)"/><path class="cls-3" d="M109.93,172.25c4.75,0,9.65.14,14.4.14,1.09,1,1.67,1.65,2.77,2.64-4.63,0-9-.26-13.66-.26-1.42,24-.28,49.11.43,73.39L141,263.08l-86-.64-1.34-2.11,79.93,1-.67-1.1-22.3-11.08c-.8-25.4-1.92-50.66-.63-76.88" transform="translate(0 -95.96)"/></svg>